<svg xmlns="http://www.w3.org/2000/svg" xmlns:xlink="http://www.w3.org/1999/xlink" width="541px" height="150px" viewBox="0 0 541 150" version="1.1">
    <!-- Generator: Sketch 48.2 (47327) - http://www.bohemiancoding.com/sketch -->
    <title>accops_logo@1x</title>
    <desc>Created with Sketch.</desc>
    <defs/>
    <g id="3" stroke="none" stroke-width="1" fill="none" fill-rule="evenodd" transform="translate(-173.000000, -151.000000)">
        <g id="Group-9" transform="translate(173.000000, 151.000000)">
            <g transform="translate(17.889981, 16.000000)" id="Group-7">
                <g transform="translate(0.500000, 0.500000)">
                    <g id="Group-5" transform="translate(0.878957, 0.895811)">
                        <g id="Group-3" transform="translate(9.913125, 0.000000)" fill="#F05A30">
                            <g id="Group-2" transform="translate(0.742752, 0.022125)">
                                <polygon id="Combined-Shape" points="50.8616985 99.0293463 71.1510615 82.1153297 29.5714425 0.485610621 0.829039758 0.485610621"/>
                            </g>
                        </g>
                        <g id="Group-3" transform="translate(0.000000, 39.359214)" fill="#FFAF2A">
                            <g id="Group-2" transform="translate(0.727109, 0.009704)">
                                <polygon id="Combined-Shape" points="24.1517815 47.0658819 33.7984159 39.0240654 14.0292697 0.212987114 0.363613929 0.212987114"/>
                            </g>
                        </g>
                    </g>
                    <g id="Group-6" transform="translate(98.500000, 2.000000)" fill="#555555">
                        <g id="Group-4" transform="translate(73.500000, 0.500000)">
                            <g id="Group">
                                <path d="M48.7139513,61.7106883 C49.023048,64.4925583 49.023048,67.2744283 49.023048,69.7472017 C49.023048,74.6927483 48.7139513,78.4019083 48.7139513,78.4019083 C48.7139513,78.4019083 41.7592763,79.3291983 32.0227313,79.3291983 C10.6950613,79.3291983 0.185774656,67.7380733 0.185774656,40.8466633 C0.185774656,17.04622 6.05861132,0.355 30.477248,0.355 C40.213793,0.355 48.7139513,1.12774167 48.7139513,1.12774167 C49.023048,3.75506333 49.023048,6.69148167 49.023048,9.164255 C49.023048,14.26435 48.7139513,18.2826067 48.7139513,18.2826067 C48.7139513,18.2826067 40.9865347,17.3553167 32.0227313,17.3553167 C21.667993,17.3553167 19.6588647,27.5555067 19.6588647,40.8466633 C19.6588647,56.456045 23.986218,62.3288817 33.5682147,62.3288817 C41.604728,62.3288817 48.7139513,61.7106883 48.7139513,61.7106883 Z M103.497396,18.2826061 C103.490497,18.2817785 95.7659799,17.3553167 86.8061802,17.3553167 C76.4514419,17.3553167 74.4423136,27.5555067 74.4423136,40.8466633 C74.4423136,56.456045 78.7696669,62.3288817 88.3516636,62.3288817 C96.3881769,62.3288817 103.4974,61.7106883 103.4974,61.7106883 C103.806497,64.4925583 103.806497,67.2744283 103.806497,69.7472017 C103.806497,74.6927483 103.4974,78.4019083 103.4974,78.4019083 C103.4974,78.4019083 96.5427252,79.3291983 86.8061802,79.3291983 C65.4785102,79.3291983 54.9692236,67.7380733 54.9692236,40.8466633 C54.9692236,17.04622 60.8420602,0.355 85.2606969,0.355 C94.9972419,0.355 103.4974,1.12774167 103.4974,1.12774167 C103.806497,3.75506333 103.806497,6.69148167 103.806497,9.164255 C103.806497,14.264115 103.497429,18.2822363 103.4974,18.2826066 L103.497396,18.2826061 Z M112.843639,38.0647933 C112.843639,14.26435 119.798314,0.355 146.071531,0.355 C172.344747,0.355 179.453971,14.26435 179.453971,38.0647933 C179.453971,64.801655 169.253781,79.3291983 146.071531,79.3291983 C122.889281,79.3291983 112.843639,64.801655 112.843639,38.0647933 Z M131.543987,38.5284383 C131.543987,53.0559817 135.253147,62.7925267 146.071531,62.7925267 C156.889914,62.7925267 160.753622,53.8287233 160.753622,39.1466317 C160.753622,24.7736367 156.889914,17.04622 146.071531,17.04622 C135.253147,17.04622 131.543987,24.000895 131.543987,38.5284383 Z M193.745756,113.175283 L193.745756,1.59138667 C193.745756,1.59138667 208.427848,0.509548333 226.200906,0.509548333 C249.07406,0.509548333 260.356088,10.2460933 260.356088,38.6829867 C260.356088,62.3288817 249.07406,78.5564567 223.264488,78.5564567 C219.709876,78.5564567 215.69162,78.4019083 212.600653,78.24736 L212.600653,103.175283 C200.030722,109.84195 193.745756,113.175283 193.745756,113.175283 Z M212.600653,17.6644133 L212.600653,62.7925267 L223.264488,62.7925267 C237.173838,62.7925267 240.882998,51.819595 240.882998,38.6829867 C240.882998,23.073605 237.173838,17.6644133 226.200906,17.6644133 L212.600653,17.6644133 Z M301.075639,0.355 C318.385052,0.355 327.194307,7.77332 327.194307,7.77332 C327.194307,7.77332 324.257889,15.3461883 317.148665,20.4462833 C317.148665,20.4462833 310.657635,16.11893 301.075639,16.11893 C294.275512,16.11893 291.339094,19.2098967 291.339094,23.8463467 C291.339094,31.419215 300.457445,31.2646667 310.348539,32.6556017 C320.239632,34.0465367 330.130725,40.3830183 330.130725,54.4469167 C330.130725,71.6017817 319.930535,79.3291983 297.984672,79.3291983 C278.975227,79.3291983 271.402359,71.292685 271.402359,71.292685 C271.402359,71.292685 274.338777,63.874365 281.448,59.0833667 C281.448,59.0833667 288.557224,63.5652683 297.984672,63.5652683 C307.103024,63.5652683 311.739474,60.62885 311.739474,55.06511 C311.739474,46.5649517 301.84838,46.8740483 291.64819,45.79221 C282.066194,44.7103717 272.793294,38.5284383 272.793294,24.46454 C272.793294,7.46422333 282.37529,0.355 301.075639,0.355 Z" id="accops"/>
                            </g>
                        </g>
                        <path d="M25.8013735,79.4211289 C7.2555735,79.4211289 0.146350168,71.0755189 0.146350168,55.7752339 C0.146350168,40.6294972 7.41012183,32.1293389 27.1923085,32.1293389 L41.4107552,32.1293389 L41.4107552,28.1110822 C41.4107552,19.3018272 35.6924668,17.4472472 28.1195985,17.4472472 C20.6956192,17.4472472 13.2716398,19.0846341 9.78038696,19.9759373 L2.04168892,4.874614 C3.34683902,4.29978348 12.0239886,0.756027207 28.1195985,0.756027207 C49.6018168,0.756027207 60.4202002,7.40160554 60.4202002,27.1837922 L60.4202002,78.8029355 C60.4202002,78.8029355 42.8016902,79.4211289 25.8013735,79.4211289 Z M27.3468568,64.7390372 C33.5287902,64.7390372 41.4107552,64.2753922 41.4107552,64.2753922 L41.4107552,46.3477855 L28.7377918,46.1932372 C19.6194402,46.0386889 18.6921502,50.9842355 18.6921502,55.7752339 C18.6921502,60.7207805 20.0830852,64.7390372 27.3468568,64.7390372 Z" id="Combined-Shape"/>
                    </g>
                </g>
            </g>
        </g>
    </g>
</svg>