<svg width="2992" height="1042" viewBox="0 0 2992 1042" fill="none" xmlns="http://www.w3.org/2000/svg">
<mask id="mask0_3711_695" style="mask-type:alpha" maskUnits="userSpaceOnUse" x="265" y="0" width="2434" height="1042">
<mask id="path-1-outside-1_3711_695" maskUnits="userSpaceOnUse" x="258" y="-7" width="2448" height="1056" fill="black">
<rect fill="white" x="258" y="-7" width="2448" height="1056"/>
<path d="M613.261 328.67H693.917C683.78 382.441 660.641 423.871 624.5 452.961C588.358 482.05 542.52 496.595 486.986 496.595C417.789 496.595 363.577 474.116 324.35 429.16C285.124 383.763 265.51 322.94 265.51 246.691C265.51 170.882 285.565 110.94 325.673 66.8655C366.221 22.3499 421.315 0.092159 490.953 0.092159C544.724 0.092159 589.24 14.8572 624.5 44.3873C660.2 73.4767 682.899 114.687 692.595 168.017H611.938C604.446 135.842 589.901 111.381 568.304 94.6326C546.708 77.4434 520.042 68.8488 488.309 68.8488C448.641 68.8488 416.026 84.4954 390.463 115.788C364.899 147.082 352.117 190.716 352.117 246.691C352.117 303.106 364.679 347.401 389.801 379.576C415.365 411.751 447.98 427.838 487.647 427.838C520.703 427.838 548.03 419.464 569.626 402.715C591.223 385.967 605.768 361.285 613.261 328.67ZM867.286 220.246C849.656 241.402 840.841 271.593 840.841 310.819C840.841 350.046 849.656 380.237 867.286 401.393C885.357 422.108 907.835 432.466 934.721 432.466C961.606 432.466 983.864 422.108 1001.49 401.393C1019.56 380.237 1028.6 350.046 1028.6 310.819C1028.6 271.593 1019.56 241.402 1001.49 220.246C983.864 199.09 961.606 188.512 934.721 188.512C907.835 188.512 885.357 199.09 867.286 220.246ZM811.091 172.645C845.91 140.47 887.12 124.383 934.721 124.383C982.321 124.383 1023.31 140.47 1057.69 172.645C1092.51 204.82 1109.92 250.878 1109.92 310.819C1109.92 371.202 1092.51 417.26 1057.69 448.994C1023.31 480.728 982.321 496.595 934.721 496.595C887.12 496.595 845.91 480.728 811.091 448.994C776.713 417.26 759.523 371.202 759.523 310.819C759.523 250.878 776.713 204.82 811.091 172.645ZM1266.47 298.919V488H1187.8V132.316H1266.47V181.901C1287.63 143.556 1322 124.383 1369.6 124.383C1421.17 124.383 1455.77 145.319 1473.4 187.19C1502.49 145.319 1541.06 124.383 1589.1 124.383C1666.67 124.383 1705.45 171.102 1705.45 264.541V488H1626.78V283.713C1626.78 269.169 1626.12 257.269 1624.8 248.013C1623.92 238.316 1621.49 228.62 1617.52 218.923C1613.56 208.786 1607.17 201.294 1598.35 196.445C1589.54 191.156 1578.08 188.512 1563.97 188.512C1511.97 188.512 1485.96 225.314 1485.96 298.919V488H1407.29V283.713C1407.29 269.169 1406.63 257.269 1405.3 248.013C1404.42 238.316 1402 228.62 1398.03 218.923C1394.07 208.786 1387.68 201.294 1378.86 196.445C1370.05 191.156 1358.59 188.512 1344.48 188.512C1292.47 188.512 1266.47 225.314 1266.47 298.919ZM1800.81 8.68675H1879.48V88.0214H1800.81V8.68675ZM1800.81 132.316H1879.48V488H1800.81V132.316ZM2059.92 132.316V181.901C2081.07 143.556 2117 124.383 2167.68 124.383C2248.34 124.383 2288.67 171.102 2288.67 264.541V488H2209.99V283.713C2209.99 269.609 2209.11 257.709 2207.35 248.013C2206.03 238.316 2203.16 228.62 2198.75 218.923C2194.79 208.786 2187.96 201.294 2178.26 196.445C2169 191.156 2157.1 188.512 2142.56 188.512C2087.47 188.512 2059.92 225.314 2059.92 298.919V488H1981.25V132.316H2059.92ZM2619.8 179.917V132.316H2698.47V452.299C2698.47 509.597 2684.15 551.468 2655.5 577.913C2628.18 603.476 2586.08 616.258 2529.23 616.258C2487.8 616.258 2453.64 607.443 2426.75 589.813C2399.87 572.183 2383.34 544.636 2377.17 507.173H2455.18C2458.71 523.921 2466.2 535.821 2477.66 542.873C2489.56 550.366 2507.41 554.112 2531.21 554.112C2563.83 554.112 2587.41 545.518 2601.95 528.328C2613.85 514.665 2619.8 494.611 2619.8 468.166V426.516C2597.32 463.538 2562.06 482.05 2514.02 482.05C2470.39 482.05 2433.59 465.742 2403.61 433.127C2374.08 400.512 2359.32 357.098 2359.32 302.886C2359.32 248.674 2374.08 205.481 2403.61 173.306C2433.59 140.691 2470.39 124.383 2514.02 124.383C2562.06 124.383 2597.32 142.894 2619.8 179.917ZM2623.11 302.886C2623.11 264.982 2614.51 236.333 2597.32 216.94C2580.13 197.106 2558.1 187.19 2531.21 187.19C2504.33 187.19 2482.51 197.768 2465.76 218.923C2449.45 239.639 2441.3 267.626 2441.3 302.886C2441.3 339.027 2449.45 367.676 2465.76 388.832C2482.51 409.547 2504.33 419.904 2531.21 419.904C2558.1 419.904 2580.13 409.988 2597.32 390.154C2614.51 370.32 2623.11 341.231 2623.11 302.886ZM892.347 826.73L834.168 815.491C742.052 796.098 695.994 750.921 695.994 679.961C695.994 638.09 714.064 605.254 750.206 581.454C786.788 557.213 829.1 545.092 877.141 545.092C926.946 545.092 968.376 556.992 1001.43 580.793C1034.49 604.152 1055.64 639.853 1064.9 687.894H983.582C971.681 638.531 934.659 613.849 872.513 613.849C850.035 613.849 829.1 619.138 809.707 629.716C790.314 640.294 780.617 656.161 780.617 677.316C780.617 710.373 804.418 731.528 852.018 740.784L910.858 752.023C934.218 756.431 954.713 761.72 972.343 767.89C989.972 774.061 1006.94 782.655 1023.25 793.674C1040 804.252 1052.78 818.135 1061.59 835.325C1070.41 852.514 1074.82 872.568 1074.82 895.487C1074.82 941.324 1055.86 977.245 1017.96 1003.25C980.056 1028.81 935.54 1041.59 884.413 1041.59C827.116 1041.59 780.397 1026.83 744.256 997.299C708.555 967.769 688.06 926.78 682.771 874.331H765.411C780.397 940.002 821.386 972.838 888.38 972.838C917.91 972.838 942.372 966.447 961.765 953.665C981.158 940.884 990.854 923.254 990.854 900.776C990.854 878.738 981.598 862.21 963.087 851.192C945.016 840.173 921.436 832.019 892.347 826.73ZM1252.54 765.246C1234.91 786.402 1226.1 816.593 1226.1 855.819C1226.1 895.046 1234.91 925.237 1252.54 946.393C1270.62 967.108 1293.09 977.466 1319.98 977.466C1346.86 977.466 1369.12 967.108 1386.75 946.393C1404.82 925.237 1413.86 895.046 1413.86 855.819C1413.86 816.593 1404.82 786.402 1386.75 765.246C1369.12 744.09 1346.86 733.512 1319.98 733.512C1293.09 733.512 1270.62 744.09 1252.54 765.246ZM1196.35 717.645C1231.17 685.47 1272.38 669.383 1319.98 669.383C1367.58 669.383 1408.57 685.47 1442.95 717.645C1477.77 749.82 1495.18 795.878 1495.18 855.819C1495.18 916.202 1477.77 962.26 1442.95 993.994C1408.57 1025.73 1367.58 1041.59 1319.98 1041.59C1272.38 1041.59 1231.17 1025.73 1196.35 993.994C1161.97 962.26 1144.78 916.202 1144.78 855.819C1144.78 795.878 1161.97 749.82 1196.35 717.645ZM1660.89 765.246C1643.26 786.402 1634.45 816.593 1634.45 855.819C1634.45 895.046 1643.26 925.237 1660.89 946.393C1678.96 967.108 1701.44 977.466 1728.32 977.466C1755.21 977.466 1777.47 967.108 1795.1 946.393C1813.17 925.237 1822.2 895.046 1822.2 855.819C1822.2 816.593 1813.17 786.402 1795.1 765.246C1777.47 744.09 1755.21 733.512 1728.32 733.512C1701.44 733.512 1678.96 744.09 1660.89 765.246ZM1604.7 717.645C1639.51 685.47 1680.72 669.383 1728.32 669.383C1775.93 669.383 1816.92 685.47 1851.29 717.645C1886.11 749.82 1903.52 795.878 1903.52 855.819C1903.52 916.202 1886.11 962.26 1851.29 993.994C1816.92 1025.73 1775.93 1041.59 1728.32 1041.59C1680.72 1041.59 1639.51 1025.73 1604.7 993.994C1570.32 962.26 1553.13 916.202 1553.13 855.819C1553.13 795.878 1570.32 749.82 1604.7 717.645ZM2060.07 677.316V726.901C2081.23 688.556 2117.15 669.383 2167.84 669.383C2248.49 669.383 2288.82 716.102 2288.82 809.541V1033H2210.15V828.713C2210.15 814.609 2209.27 802.709 2207.5 793.013C2206.18 783.316 2203.32 773.62 2198.91 763.923C2194.94 753.786 2188.11 746.294 2178.41 741.445C2169.16 736.156 2157.26 733.512 2142.71 733.512C2087.62 733.512 2060.07 770.314 2060.07 843.919V1033H1981.4V677.316H2060.07Z"/>
</mask>
<path d="M613.261 328.67H693.917C683.78 382.441 660.641 423.871 624.5 452.961C588.358 482.05 542.52 496.595 486.986 496.595C417.789 496.595 363.577 474.116 324.35 429.16C285.124 383.763 265.51 322.94 265.51 246.691C265.51 170.882 285.565 110.94 325.673 66.8655C366.221 22.3499 421.315 0.092159 490.953 0.092159C544.724 0.092159 589.24 14.8572 624.5 44.3873C660.2 73.4767 682.899 114.687 692.595 168.017H611.938C604.446 135.842 589.901 111.381 568.304 94.6326C546.708 77.4434 520.042 68.8488 488.309 68.8488C448.641 68.8488 416.026 84.4954 390.463 115.788C364.899 147.082 352.117 190.716 352.117 246.691C352.117 303.106 364.679 347.401 389.801 379.576C415.365 411.751 447.98 427.838 487.647 427.838C520.703 427.838 548.03 419.464 569.626 402.715C591.223 385.967 605.768 361.285 613.261 328.67ZM867.286 220.246C849.656 241.402 840.841 271.593 840.841 310.819C840.841 350.046 849.656 380.237 867.286 401.393C885.357 422.108 907.835 432.466 934.721 432.466C961.606 432.466 983.864 422.108 1001.49 401.393C1019.56 380.237 1028.6 350.046 1028.6 310.819C1028.6 271.593 1019.56 241.402 1001.49 220.246C983.864 199.09 961.606 188.512 934.721 188.512C907.835 188.512 885.357 199.09 867.286 220.246ZM811.091 172.645C845.91 140.47 887.12 124.383 934.721 124.383C982.321 124.383 1023.31 140.47 1057.69 172.645C1092.51 204.82 1109.92 250.878 1109.92 310.819C1109.92 371.202 1092.51 417.26 1057.69 448.994C1023.31 480.728 982.321 496.595 934.721 496.595C887.12 496.595 845.91 480.728 811.091 448.994C776.713 417.26 759.523 371.202 759.523 310.819C759.523 250.878 776.713 204.82 811.091 172.645ZM1266.47 298.919V488H1187.8V132.316H1266.47V181.901C1287.63 143.556 1322 124.383 1369.6 124.383C1421.17 124.383 1455.77 145.319 1473.4 187.19C1502.49 145.319 1541.06 124.383 1589.1 124.383C1666.67 124.383 1705.45 171.102 1705.45 264.541V488H1626.78V283.713C1626.78 269.169 1626.12 257.269 1624.8 248.013C1623.92 238.316 1621.49 228.62 1617.52 218.923C1613.56 208.786 1607.17 201.294 1598.35 196.445C1589.54 191.156 1578.08 188.512 1563.97 188.512C1511.97 188.512 1485.96 225.314 1485.96 298.919V488H1407.29V283.713C1407.29 269.169 1406.63 257.269 1405.3 248.013C1404.42 238.316 1402 228.62 1398.03 218.923C1394.07 208.786 1387.68 201.294 1378.86 196.445C1370.05 191.156 1358.59 188.512 1344.48 188.512C1292.47 188.512 1266.47 225.314 1266.47 298.919ZM1800.81 8.68675H1879.48V88.0214H1800.81V8.68675ZM1800.81 132.316H1879.48V488H1800.81V132.316ZM2059.92 132.316V181.901C2081.07 143.556 2117 124.383 2167.68 124.383C2248.34 124.383 2288.67 171.102 2288.67 264.541V488H2209.99V283.713C2209.99 269.609 2209.11 257.709 2207.35 248.013C2206.03 238.316 2203.16 228.62 2198.75 218.923C2194.79 208.786 2187.96 201.294 2178.26 196.445C2169 191.156 2157.1 188.512 2142.56 188.512C2087.47 188.512 2059.92 225.314 2059.92 298.919V488H1981.25V132.316H2059.92ZM2619.8 179.917V132.316H2698.47V452.299C2698.47 509.597 2684.15 551.468 2655.5 577.913C2628.18 603.476 2586.08 616.258 2529.23 616.258C2487.8 616.258 2453.64 607.443 2426.75 589.813C2399.87 572.183 2383.34 544.636 2377.17 507.173H2455.18C2458.71 523.921 2466.2 535.821 2477.66 542.873C2489.56 550.366 2507.41 554.112 2531.21 554.112C2563.83 554.112 2587.41 545.518 2601.95 528.328C2613.85 514.665 2619.8 494.611 2619.8 468.166V426.516C2597.32 463.538 2562.06 482.05 2514.02 482.05C2470.39 482.05 2433.59 465.742 2403.61 433.127C2374.08 400.512 2359.32 357.098 2359.32 302.886C2359.32 248.674 2374.08 205.481 2403.61 173.306C2433.59 140.691 2470.39 124.383 2514.02 124.383C2562.06 124.383 2597.32 142.894 2619.8 179.917ZM2623.11 302.886C2623.11 264.982 2614.51 236.333 2597.32 216.94C2580.13 197.106 2558.1 187.19 2531.21 187.19C2504.33 187.19 2482.51 197.768 2465.76 218.923C2449.45 239.639 2441.3 267.626 2441.3 302.886C2441.3 339.027 2449.45 367.676 2465.76 388.832C2482.51 409.547 2504.33 419.904 2531.21 419.904C2558.1 419.904 2580.13 409.988 2597.32 390.154C2614.51 370.32 2623.11 341.231 2623.11 302.886ZM892.347 826.73L834.168 815.491C742.052 796.098 695.994 750.921 695.994 679.961C695.994 638.09 714.064 605.254 750.206 581.454C786.788 557.213 829.1 545.092 877.141 545.092C926.946 545.092 968.376 556.992 1001.43 580.793C1034.49 604.152 1055.64 639.853 1064.9 687.894H983.582C971.681 638.531 934.659 613.849 872.513 613.849C850.035 613.849 829.1 619.138 809.707 629.716C790.314 640.294 780.617 656.161 780.617 677.316C780.617 710.373 804.418 731.528 852.018 740.784L910.858 752.023C934.218 756.431 954.713 761.72 972.343 767.89C989.972 774.061 1006.94 782.655 1023.25 793.674C1040 804.252 1052.78 818.135 1061.59 835.325C1070.41 852.514 1074.82 872.568 1074.82 895.487C1074.82 941.324 1055.86 977.245 1017.96 1003.25C980.056 1028.81 935.54 1041.59 884.413 1041.59C827.116 1041.59 780.397 1026.83 744.256 997.299C708.555 967.769 688.06 926.78 682.771 874.331H765.411C780.397 940.002 821.386 972.838 888.38 972.838C917.91 972.838 942.372 966.447 961.765 953.665C981.158 940.884 990.854 923.254 990.854 900.776C990.854 878.738 981.598 862.21 963.087 851.192C945.016 840.173 921.436 832.019 892.347 826.73ZM1252.54 765.246C1234.91 786.402 1226.1 816.593 1226.1 855.819C1226.1 895.046 1234.91 925.237 1252.54 946.393C1270.62 967.108 1293.09 977.466 1319.98 977.466C1346.86 977.466 1369.12 967.108 1386.75 946.393C1404.82 925.237 1413.86 895.046 1413.86 855.819C1413.86 816.593 1404.82 786.402 1386.75 765.246C1369.12 744.09 1346.86 733.512 1319.98 733.512C1293.09 733.512 1270.62 744.09 1252.54 765.246ZM1196.35 717.645C1231.17 685.47 1272.38 669.383 1319.98 669.383C1367.58 669.383 1408.57 685.47 1442.95 717.645C1477.77 749.82 1495.18 795.878 1495.18 855.819C1495.18 916.202 1477.77 962.26 1442.95 993.994C1408.57 1025.73 1367.58 1041.59 1319.98 1041.59C1272.38 1041.59 1231.17 1025.73 1196.35 993.994C1161.97 962.26 1144.78 916.202 1144.78 855.819C1144.78 795.878 1161.97 749.82 1196.35 717.645ZM1660.89 765.246C1643.26 786.402 1634.45 816.593 1634.45 855.819C1634.45 895.046 1643.26 925.237 1660.89 946.393C1678.96 967.108 1701.44 977.466 1728.32 977.466C1755.21 977.466 1777.47 967.108 1795.1 946.393C1813.17 925.237 1822.2 895.046 1822.2 855.819C1822.2 816.593 1813.17 786.402 1795.1 765.246C1777.47 744.09 1755.21 733.512 1728.32 733.512C1701.44 733.512 1678.96 744.09 1660.89 765.246ZM1604.7 717.645C1639.51 685.47 1680.72 669.383 1728.32 669.383C1775.93 669.383 1816.92 685.47 1851.29 717.645C1886.11 749.82 1903.52 795.878 1903.52 855.819C1903.52 916.202 1886.11 962.26 1851.29 993.994C1816.92 1025.73 1775.93 1041.59 1728.32 1041.59C1680.72 1041.59 1639.51 1025.73 1604.7 993.994C1570.32 962.26 1553.13 916.202 1553.13 855.819C1553.13 795.878 1570.32 749.82 1604.7 717.645ZM2060.07 677.316V726.901C2081.23 688.556 2117.15 669.383 2167.84 669.383C2248.49 669.383 2288.82 716.102 2288.82 809.541V1033H2210.15V828.713C2210.15 814.609 2209.27 802.709 2207.5 793.013C2206.18 783.316 2203.32 773.62 2198.91 763.923C2194.94 753.786 2188.11 746.294 2178.41 741.445C2169.16 736.156 2157.26 733.512 2142.71 733.512C2087.62 733.512 2060.07 770.314 2060.07 843.919V1033H1981.4V677.316H2060.07Z" fill="white"/>
<path d="M613.261 328.67V321.67H607.686L606.438 327.102L613.261 328.67ZM693.917 328.67L700.796 329.966L702.36 321.67H693.917V328.67ZM624.5 452.961L620.111 447.507L620.111 447.507L624.5 452.961ZM324.35 429.16L319.054 433.737L319.065 433.75L319.076 433.762L324.35 429.16ZM325.673 66.8655L320.498 62.1517L320.495 62.1542L325.673 66.8655ZM624.5 44.3873L620.005 49.7539L620.041 49.7842L620.078 49.814L624.5 44.3873ZM692.595 168.017V175.017H700.983L699.482 166.765L692.595 168.017ZM611.938 168.017L605.121 169.605L606.381 175.017H611.938V168.017ZM568.304 94.6326L563.945 100.11L563.98 100.137L564.014 100.164L568.304 94.6326ZM390.463 115.788L385.041 111.36L385.041 111.36L390.463 115.788ZM389.801 379.576L384.284 383.884L384.302 383.907L384.321 383.931L389.801 379.576ZM569.626 402.715L565.337 397.184L565.337 397.184L569.626 402.715ZM613.261 335.67H693.917V321.67H613.261V335.67ZM687.039 327.373C677.152 379.815 654.728 419.645 620.111 447.507L628.889 458.414C666.554 428.098 690.409 385.066 700.796 329.966L687.039 327.373ZM620.111 447.507C585.446 475.408 541.25 489.595 486.986 489.595V503.595C543.79 503.595 591.271 488.691 628.889 458.414L620.111 447.507ZM486.986 489.595C419.453 489.595 367.304 467.741 329.625 424.558L319.076 433.762C359.85 480.492 416.124 503.595 486.986 503.595V489.595ZM329.647 424.583C291.791 380.772 272.51 321.727 272.51 246.691H258.51C258.51 324.152 278.457 386.754 319.054 433.737L329.647 424.583ZM272.51 246.691C272.51 172.134 292.208 114.041 330.85 71.5767L320.495 62.1542C278.921 107.84 258.51 169.63 258.51 246.691H272.51ZM330.848 71.5793C369.858 28.7529 422.946 7.09216 490.953 7.09216V-6.90784C419.684 -6.90784 362.585 15.9469 320.498 62.1517L330.848 71.5793ZM490.953 7.09216C543.373 7.09216 586.213 21.4525 620.005 49.7539L628.994 39.0208C592.267 8.26189 546.075 -6.90784 490.953 -6.90784V7.09216ZM620.078 49.814C654.264 77.669 676.254 117.274 685.708 169.269L699.482 166.765C689.543 112.099 666.137 69.2843 628.921 38.9607L620.078 49.814ZM692.595 161.017H611.938V175.017H692.595V161.017ZM618.756 166.429C610.977 133.028 595.711 107.029 572.594 89.101L564.014 100.164C584.09 115.733 597.914 138.657 605.121 169.605L618.756 166.429ZM572.663 89.1556C549.646 70.8358 521.377 61.8488 488.309 61.8488V75.8488C518.708 75.8488 543.769 84.051 563.945 100.11L572.663 89.1556ZM488.309 61.8488C446.495 61.8488 411.905 78.4747 385.041 111.36L395.884 120.217C420.146 90.5161 450.788 75.8488 488.309 75.8488V61.8488ZM385.041 111.36C358.126 144.309 345.117 189.717 345.117 246.691H359.117C359.117 191.714 371.673 149.854 395.884 120.217L385.041 111.36ZM345.117 246.691C345.117 304.08 357.893 350.085 384.284 383.884L395.319 375.268C371.465 344.718 359.117 302.133 359.117 246.691H345.117ZM384.321 383.931C411.157 417.707 445.758 434.838 487.647 434.838V420.838C450.202 420.838 419.573 405.794 395.282 375.222L384.321 383.931ZM487.647 434.838C521.921 434.838 550.851 426.134 573.916 408.247L565.337 397.184C545.208 412.793 519.485 420.838 487.647 420.838V434.838ZM573.916 408.247C597.057 390.301 612.312 364.061 620.083 330.237L606.438 327.102C599.223 358.509 585.39 381.633 565.337 397.184L573.916 408.247ZM867.286 220.246L861.964 215.699L861.936 215.732L861.909 215.764L867.286 220.246ZM867.286 401.393L861.909 405.874L861.959 405.935L862.011 405.995L867.286 401.393ZM1001.49 401.393L996.171 396.847L996.163 396.856L1001.49 401.393ZM1001.49 220.246L996.116 224.727L996.144 224.76L996.171 224.792L1001.49 220.246ZM811.091 172.645L806.34 167.504L806.324 167.519L806.308 167.534L811.091 172.645ZM1057.69 172.645L1052.91 177.756L1052.92 177.771L1052.94 177.786L1057.69 172.645ZM1057.69 448.994L1052.97 443.82L1052.96 443.835L1052.94 443.85L1057.69 448.994ZM811.091 448.994L806.343 454.137L806.359 454.153L806.376 454.167L811.091 448.994ZM861.909 215.764C842.864 238.618 833.841 270.638 833.841 310.819H847.841C847.841 272.548 856.449 244.185 872.664 224.727L861.909 215.764ZM833.841 310.819C833.841 351.001 842.864 383.02 861.909 405.874L872.664 396.912C856.449 377.454 847.841 349.091 847.841 310.819H833.841ZM862.011 405.995C881.377 428.194 905.761 439.466 934.721 439.466V425.466C909.909 425.466 889.337 416.022 872.561 396.791L862.011 405.995ZM934.721 439.466C963.686 439.466 987.883 428.187 1006.82 405.93L996.163 396.856C979.845 416.03 959.526 425.466 934.721 425.466V439.466ZM1006.82 405.939C1026.34 383.083 1035.6 351.037 1035.6 310.819H1021.6C1021.6 349.055 1012.79 377.392 996.171 396.847L1006.82 405.939ZM1035.6 310.819C1035.6 270.602 1026.34 238.556 1006.82 215.699L996.171 224.792C1012.79 244.247 1021.6 272.584 1021.6 310.819H1035.6ZM1006.87 215.764C987.949 193.057 963.741 181.512 934.721 181.512V195.512C959.471 195.512 979.779 205.122 996.116 224.727L1006.87 215.764ZM934.721 181.512C905.707 181.512 881.311 193.049 861.964 215.699L872.609 224.792C889.403 205.131 909.963 195.512 934.721 195.512V181.512ZM815.841 177.786C849.361 146.812 888.873 131.383 934.721 131.383V117.383C885.367 117.383 842.458 134.129 806.34 167.504L815.841 177.786ZM934.721 131.383C980.567 131.383 1019.84 146.81 1052.91 177.756L1062.47 167.534C1026.78 134.131 984.076 117.383 934.721 117.383V131.383ZM1052.94 177.786C1085.96 208.303 1102.92 252.28 1102.92 310.819H1116.92C1116.92 249.475 1099.05 201.336 1062.44 167.504L1052.94 177.786ZM1102.92 310.819C1102.92 369.822 1085.95 413.764 1052.97 443.82L1062.4 454.167C1099.06 420.756 1116.92 372.581 1116.92 310.819H1102.92ZM1052.94 443.85C1019.88 474.368 980.596 489.595 934.721 489.595V503.595C984.047 503.595 1026.74 487.088 1062.44 454.137L1052.94 443.85ZM934.721 489.595C888.844 489.595 849.321 474.365 815.806 443.82L806.376 454.167C842.499 487.09 885.396 503.595 934.721 503.595V489.595ZM815.839 443.85C783.285 413.8 766.523 369.849 766.523 310.819H752.523C752.523 372.555 770.14 420.719 806.343 454.137L815.839 443.85ZM766.523 310.819C766.523 252.254 783.273 208.267 815.874 177.756L806.308 167.534C770.152 201.372 752.523 249.502 752.523 310.819H766.523ZM1266.47 488V495H1273.47V488H1266.47ZM1187.8 488H1180.8V495H1187.8V488ZM1187.8 132.316V125.316H1180.8V132.316H1187.8ZM1266.47 132.316H1273.47V125.316H1266.47V132.316ZM1266.47 181.901H1259.47L1272.6 185.282L1266.47 181.901ZM1473.4 187.19L1466.95 189.906L1471.89 201.636L1479.15 191.184L1473.4 187.19ZM1705.45 488V495H1712.45V488H1705.45ZM1626.78 488H1619.78V495H1626.78V488ZM1624.8 248.013L1617.83 248.647L1617.84 248.825L1617.87 249.003L1624.8 248.013ZM1617.52 218.923L1611.01 221.474L1611.03 221.524L1611.05 221.574L1617.52 218.923ZM1598.35 196.445L1594.75 202.448L1594.86 202.515L1594.98 202.579L1598.35 196.445ZM1485.96 488V495H1492.96V488H1485.96ZM1407.29 488H1400.29V495H1407.29V488ZM1405.3 248.013L1398.33 248.647L1398.35 248.825L1398.38 249.003L1405.3 248.013ZM1398.03 218.923L1391.51 221.474L1391.53 221.524L1391.55 221.574L1398.03 218.923ZM1378.86 196.445L1375.26 202.448L1375.37 202.515L1375.49 202.579L1378.86 196.445ZM1259.47 298.919V488H1273.47V298.919H1259.47ZM1266.47 481H1187.8V495H1266.47V481ZM1194.8 488V132.316H1180.8V488H1194.8ZM1187.8 139.316H1266.47V125.316H1187.8V139.316ZM1259.47 132.316V181.901H1273.47V132.316H1259.47ZM1272.6 185.282C1292.4 149.398 1324.28 131.383 1369.6 131.383V117.383C1319.73 117.383 1282.85 137.713 1260.34 178.519L1272.6 185.282ZM1369.6 131.383C1394.46 131.383 1414.66 136.426 1430.61 146.074C1446.49 155.683 1458.63 170.157 1466.95 189.906L1479.85 184.473C1470.54 162.351 1456.57 145.422 1437.85 134.096C1419.2 122.808 1396.32 117.383 1369.6 117.383V131.383ZM1479.15 191.184C1507.03 151.059 1543.51 131.383 1589.1 131.383V117.383C1538.6 117.383 1497.95 139.578 1467.65 183.196L1479.15 191.184ZM1589.1 131.383C1626.43 131.383 1653.27 142.562 1670.98 163.894C1688.9 185.475 1698.45 218.616 1698.45 264.541H1712.45C1712.45 217.027 1702.62 180.089 1681.75 154.951C1660.67 129.564 1629.34 117.383 1589.1 117.383V131.383ZM1698.45 264.541V488H1712.45V264.541H1698.45ZM1705.45 481H1626.78V495H1705.45V481ZM1633.78 488V283.713H1619.78V488H1633.78ZM1633.78 283.713C1633.78 268.998 1633.11 256.734 1631.73 247.023L1617.87 249.003C1619.12 257.803 1619.78 269.34 1619.78 283.713H1633.78ZM1631.77 247.379C1630.82 236.939 1628.21 226.565 1624 216.273L1611.05 221.574C1614.77 230.675 1617.01 239.694 1617.83 248.647L1631.77 247.379ZM1624.04 216.373C1619.53 204.845 1612.1 196.016 1601.73 190.312L1594.98 202.579C1602.24 206.571 1607.58 212.728 1611.01 221.474L1624.04 216.373ZM1601.95 190.443C1591.72 184.302 1578.89 181.512 1563.97 181.512V195.512C1577.26 195.512 1587.36 198.011 1594.75 202.448L1601.95 190.443ZM1563.97 181.512C1536.1 181.512 1514.28 191.51 1499.75 212.074C1485.53 232.193 1478.96 261.506 1478.96 298.919H1492.96C1492.96 262.728 1499.39 236.837 1511.18 220.153C1522.66 203.915 1539.84 195.512 1563.97 195.512V181.512ZM1478.96 298.919V488H1492.96V298.919H1478.96ZM1485.96 481H1407.29V495H1485.96V481ZM1414.29 488V283.713H1400.29V488H1414.29ZM1414.29 283.713C1414.29 268.998 1413.62 256.734 1412.23 247.023L1398.38 249.003C1399.63 257.803 1400.29 269.34 1400.29 283.713H1414.29ZM1412.28 247.379C1411.33 236.939 1408.72 226.565 1404.51 216.273L1391.55 221.574C1395.28 230.675 1397.52 239.694 1398.33 248.647L1412.28 247.379ZM1404.55 216.373C1400.04 204.845 1392.61 196.016 1382.23 190.312L1375.49 202.579C1382.74 206.571 1388.09 212.728 1391.51 221.474L1404.55 216.373ZM1382.46 190.443C1372.23 184.302 1359.4 181.512 1344.48 181.512V195.512C1357.77 195.512 1367.86 198.011 1375.26 202.448L1382.46 190.443ZM1344.48 181.512C1316.61 181.512 1294.79 191.51 1280.26 212.074C1266.04 232.193 1259.47 261.506 1259.47 298.919H1273.47C1273.47 262.728 1279.9 236.837 1291.69 220.153C1303.16 203.915 1320.35 195.512 1344.48 195.512V181.512ZM1800.81 8.68675V1.68675H1793.81V8.68675H1800.81ZM1879.48 8.68675H1886.48V1.68675H1879.48V8.68675ZM1879.48 88.0214V95.0214H1886.48V88.0214H1879.48ZM1800.81 88.0214H1793.81V95.0214H1800.81V88.0214ZM1800.81 132.316V125.316H1793.81V132.316H1800.81ZM1879.48 132.316H1886.48V125.316H1879.48V132.316ZM1879.48 488V495H1886.48V488H1879.48ZM1800.81 488H1793.81V495H1800.81V488ZM1800.81 15.6867H1879.48V1.68675H1800.81V15.6867ZM1872.48 8.68675V88.0214H1886.48V8.68675H1872.48ZM1879.48 81.0214H1800.81V95.0214H1879.48V81.0214ZM1807.81 88.0214V8.68675H1793.81V88.0214H1807.81ZM1800.81 139.316H1879.48V125.316H1800.81V139.316ZM1872.48 132.316V488H1886.48V132.316H1872.48ZM1879.48 481H1800.81V495H1879.48V481ZM1807.81 488V132.316H1793.81V488H1807.81ZM2059.92 132.316H2066.92V125.316H2059.92V132.316ZM2059.92 181.901H2052.92L2066.05 185.282L2059.92 181.901ZM2288.67 488V495H2295.67V488H2288.67ZM2209.99 488H2202.99V495H2209.99V488ZM2207.35 248.013L2200.41 248.959L2200.43 249.112L2200.46 249.265L2207.35 248.013ZM2198.75 218.923L2192.24 221.474L2192.3 221.649L2192.38 221.82L2198.75 218.923ZM2178.26 196.445L2174.79 202.523L2174.96 202.619L2175.13 202.706L2178.26 196.445ZM2059.92 488V495H2066.92V488H2059.92ZM1981.25 488H1974.25V495H1981.25V488ZM1981.25 132.316V125.316H1974.25V132.316H1981.25ZM2052.92 132.316V181.901H2066.92V132.316H2052.92ZM2066.05 185.282C2085.75 149.563 2119.06 131.383 2167.68 131.383V117.383C2114.93 117.383 2076.39 137.548 2053.79 178.519L2066.05 185.282ZM2167.68 131.383C2206.64 131.383 2234.67 142.618 2253.12 163.997C2271.75 185.572 2281.67 218.669 2281.67 264.541H2295.67C2295.67 216.974 2285.42 179.993 2263.72 154.848C2241.84 129.507 2209.38 117.383 2167.68 117.383V131.383ZM2281.67 264.541V488H2295.67V264.541H2281.67ZM2288.67 481H2209.99V495H2288.67V481ZM2216.99 488V283.713H2202.99V488H2216.99ZM2216.99 283.713C2216.99 269.353 2216.1 257.005 2214.24 246.761L2200.46 249.265C2202.13 258.414 2202.99 269.866 2202.99 283.713H2216.99ZM2214.28 247.067C2212.86 236.64 2209.79 226.288 2205.13 216.027L2192.38 221.82C2196.53 230.951 2199.19 239.993 2200.41 248.959L2214.28 247.067ZM2205.27 216.373C2200.68 204.629 2192.64 195.811 2181.39 190.184L2175.13 202.706C2183.27 206.776 2188.9 212.943 2192.24 221.474L2205.27 216.373ZM2181.73 190.368C2171.1 184.293 2157.9 181.512 2142.56 181.512V195.512C2156.31 195.512 2166.9 198.019 2174.79 202.523L2181.73 190.368ZM2142.56 181.512C2113.3 181.512 2090.34 191.392 2074.97 211.919C2059.9 232.065 2052.92 261.446 2052.92 298.919H2066.92C2066.92 262.788 2073.72 236.965 2086.18 220.308C2098.36 204.033 2116.73 195.512 2142.56 195.512V181.512ZM2052.92 298.919V488H2066.92V298.919H2052.92ZM2059.92 481H1981.25V495H2059.92V481ZM1988.25 488V132.316H1974.25V488H1988.25ZM1981.25 139.316H2059.92V125.316H1981.25V139.316ZM2619.8 179.917L2613.82 183.55L2626.8 204.935V179.917H2619.8ZM2619.8 132.316V125.316H2612.8V132.316H2619.8ZM2698.47 132.316H2705.47V125.316H2698.47V132.316ZM2655.5 577.913L2650.75 572.769L2650.74 572.785L2650.72 572.801L2655.5 577.913ZM2426.75 589.813L2422.91 595.666L2422.91 595.666L2426.75 589.813ZM2377.17 507.173V500.173H2368.92L2370.26 508.31L2377.17 507.173ZM2455.18 507.173L2462.03 505.73L2460.86 500.173H2455.18V507.173ZM2477.66 542.873L2481.39 536.949L2481.36 536.93L2481.33 536.911L2477.66 542.873ZM2601.95 528.328L2596.67 523.731L2596.64 523.769L2596.61 523.807L2601.95 528.328ZM2619.8 426.516H2626.8V401.498L2613.82 422.883L2619.8 426.516ZM2403.61 433.127L2398.43 437.825L2398.44 437.844L2398.46 437.863L2403.61 433.127ZM2403.61 173.306L2398.46 168.57L2398.46 168.573L2403.61 173.306ZM2597.32 216.94L2592.03 221.525L2592.06 221.554L2592.08 221.583L2597.32 216.94ZM2465.76 218.923L2460.27 214.579L2460.27 214.586L2460.26 214.594L2465.76 218.923ZM2465.76 388.832L2460.22 393.105L2460.27 393.17L2460.32 393.233L2465.76 388.832ZM2597.32 390.154L2602.61 394.739L2602.61 394.739L2597.32 390.154ZM2626.8 179.917V132.316H2612.8V179.917H2626.8ZM2619.8 139.316H2698.47V125.316H2619.8V139.316ZM2691.47 132.316V452.299H2705.47V132.316H2691.47ZM2691.47 452.299C2691.47 508.569 2677.4 548.168 2650.75 572.769L2660.25 583.056C2690.9 554.767 2705.47 510.625 2705.47 452.299H2691.47ZM2650.72 572.801C2625.22 596.652 2585.21 609.258 2529.23 609.258V623.258C2586.96 623.258 2631.13 610.3 2660.28 583.024L2650.72 572.801ZM2529.23 609.258C2488.77 609.258 2456.05 600.653 2430.59 583.959L2422.91 595.666C2451.23 614.233 2486.82 623.258 2529.23 623.258V609.258ZM2430.59 583.959C2405.64 567.598 2389.99 541.948 2384.08 506.035L2370.26 508.31C2376.69 547.325 2394.09 576.768 2422.91 595.666L2430.59 583.959ZM2377.17 514.173H2455.18V500.173H2377.17V514.173ZM2448.33 508.615C2452.14 526.701 2460.48 540.519 2473.99 548.835L2481.33 536.911C2471.92 531.123 2465.28 521.141 2462.03 505.73L2448.33 508.615ZM2473.93 548.797C2487.48 557.327 2506.9 561.112 2531.21 561.112V547.112C2507.92 547.112 2491.64 543.405 2481.39 536.949L2473.93 548.797ZM2531.21 561.112C2564.93 561.112 2590.91 552.215 2607.29 532.85L2596.61 523.807C2583.9 538.82 2562.72 547.112 2531.21 547.112V561.112ZM2607.23 532.926C2620.65 517.513 2626.8 495.541 2626.8 468.166H2612.8C2612.8 493.682 2607.05 511.818 2596.67 523.731L2607.23 532.926ZM2626.8 468.166V426.516H2612.8V468.166H2626.8ZM2613.82 422.883C2592.77 457.555 2559.94 475.05 2514.02 475.05V489.05C2564.19 489.05 2601.88 469.522 2625.78 430.149L2613.82 422.883ZM2514.02 475.05C2472.38 475.05 2437.44 459.588 2408.77 428.391L2398.46 437.863C2429.73 471.896 2468.39 489.05 2514.02 489.05V475.05ZM2408.8 428.429C2380.69 397.382 2366.32 355.783 2366.32 302.886H2352.32C2352.32 358.413 2367.47 403.641 2398.43 437.825L2408.8 428.429ZM2366.32 302.886C2366.32 249.985 2380.69 208.63 2408.77 178.039L2398.46 168.573C2367.47 202.331 2352.32 247.363 2352.32 302.886H2366.32ZM2408.77 178.042C2437.44 146.845 2472.38 131.383 2514.02 131.383V117.383C2468.39 117.383 2429.73 134.537 2398.46 168.57L2408.77 178.042ZM2514.02 131.383C2559.94 131.383 2592.77 148.878 2613.82 183.55L2625.78 176.284C2601.88 136.911 2564.19 117.383 2514.02 117.383V131.383ZM2630.11 302.886C2630.11 264.047 2621.31 233.452 2602.56 212.297L2592.08 221.583C2607.71 239.214 2616.11 265.916 2616.11 302.886H2630.11ZM2602.61 212.356C2584.06 190.945 2560.07 180.19 2531.21 180.19V194.19C2556.12 194.19 2576.21 203.267 2592.03 221.525L2602.61 212.356ZM2531.21 180.19C2502.18 180.19 2478.34 191.753 2460.27 214.579L2471.25 223.268C2486.67 203.782 2506.47 194.19 2531.21 194.19V180.19ZM2460.26 214.594C2442.7 236.902 2434.3 266.584 2434.3 302.886H2448.3C2448.3 268.668 2456.21 242.375 2471.26 223.253L2460.26 214.594ZM2434.3 302.886C2434.3 340.032 2442.68 370.356 2460.22 393.105L2471.3 384.558C2456.22 364.996 2448.3 338.022 2448.3 302.886H2434.3ZM2460.32 393.233C2478.41 415.609 2502.23 426.904 2531.21 426.904V412.904C2506.42 412.904 2486.61 403.484 2471.2 384.431L2460.32 393.233ZM2531.21 426.904C2560.07 426.904 2584.06 416.149 2602.61 394.739L2592.03 385.569C2576.21 403.827 2556.12 412.904 2531.21 412.904V426.904ZM2602.61 394.739C2621.32 373.157 2630.11 342.156 2630.11 302.886H2616.11C2616.11 340.306 2607.71 367.484 2592.03 385.569L2602.61 394.739ZM892.347 826.73L891.019 833.603L891.057 833.61L891.095 833.617L892.347 826.73ZM834.168 815.491L832.726 822.341L832.783 822.353L832.84 822.364L834.168 815.491ZM750.206 581.454L754.056 587.3L754.064 587.295L754.072 587.289L750.206 581.454ZM1001.43 580.793L997.342 586.473L997.367 586.492L997.392 586.509L1001.43 580.793ZM1064.9 687.894V694.894H1073.38L1071.77 686.57L1064.9 687.894ZM983.582 687.894L976.777 689.535L978.069 694.894H983.582V687.894ZM809.707 629.716L806.355 623.57L806.355 623.57L809.707 629.716ZM852.018 740.784L850.682 747.655L850.694 747.658L850.705 747.66L852.018 740.784ZM910.858 752.023L909.545 758.899L909.553 758.9L909.56 758.902L910.858 752.023ZM1023.25 793.674L1019.33 799.474L1019.42 799.535L1019.51 799.592L1023.25 793.674ZM1017.96 1003.25L1021.87 1009.05L1021.9 1009.04L1021.92 1009.02L1017.96 1003.25ZM744.256 997.299L739.794 1002.69L739.81 1002.71L739.827 1002.72L744.256 997.299ZM682.771 874.331V867.331H675.03L675.807 875.033L682.771 874.331ZM765.411 874.331L772.236 872.773L770.994 867.331H765.411V874.331ZM963.087 851.192L959.443 857.168L959.474 857.188L959.506 857.207L963.087 851.192ZM893.675 819.857L835.496 808.618L832.84 822.364L891.019 833.603L893.675 819.857ZM835.61 808.641C790.292 799.1 757.172 783.384 735.439 762.066C713.893 740.933 702.994 713.768 702.994 679.961H688.994C688.994 717.114 701.124 748.018 725.636 772.061C749.96 795.92 785.928 812.489 832.726 822.341L835.61 808.641ZM702.994 679.961C702.994 640.538 719.801 609.858 754.056 587.3L746.356 575.608C708.327 600.651 688.994 635.642 688.994 679.961H702.994ZM754.072 587.289C789.4 563.879 830.339 552.092 877.141 552.092V538.092C827.86 538.092 784.176 550.546 746.339 575.619L754.072 587.289ZM877.141 552.092C925.81 552.092 965.721 563.707 997.342 586.473L1005.52 575.112C971.03 550.278 928.081 538.092 877.141 538.092V552.092ZM997.392 586.509C1028.67 608.616 1049.04 642.559 1058.03 689.219L1071.77 686.57C1062.25 637.147 1040.3 599.689 1005.47 575.076L997.392 586.509ZM1064.9 680.894H983.582V694.894H1064.9V680.894ZM990.387 686.254C984.086 660.119 970.958 639.993 950.772 626.536C930.739 613.18 904.439 606.849 872.513 606.849V620.849C902.732 620.849 926.017 626.859 943.006 638.185C959.844 649.41 971.177 666.306 976.777 689.535L990.387 686.254ZM872.513 606.849C848.885 606.849 826.794 612.421 806.355 623.57L813.059 635.861C831.405 625.854 851.185 620.849 872.513 620.849V606.849ZM806.355 623.57C795.784 629.336 787.516 636.737 781.917 645.899C776.308 655.077 773.617 665.632 773.617 677.316H787.617C787.617 667.845 789.775 659.889 793.863 653.2C797.96 646.494 804.236 640.673 813.059 635.861L806.355 623.57ZM773.617 677.316C773.617 695.757 780.359 711.245 793.817 723.207C807.022 734.946 826.244 742.904 850.682 747.655L853.355 733.913C830.192 729.409 813.713 722.161 803.118 712.744C792.776 703.551 787.617 691.932 787.617 677.316H773.617ZM850.705 747.66L909.545 758.899L912.172 745.148L853.332 733.908L850.705 747.66ZM909.56 758.902C932.664 763.261 952.806 768.469 970.03 774.497L974.655 761.283C956.619 754.971 935.772 749.601 912.156 745.145L909.56 758.902ZM970.03 774.497C987.062 780.458 1003.49 788.774 1019.33 799.474L1027.17 787.874C1010.39 776.536 992.883 767.663 974.655 761.283L970.03 774.497ZM1019.51 799.592C1035.23 809.519 1047.14 822.474 1055.37 838.519L1067.82 832.13C1058.42 813.797 1044.77 798.984 1026.99 787.756L1019.51 799.592ZM1055.37 838.519C1063.59 854.551 1067.82 873.473 1067.82 895.487H1081.82C1081.82 871.663 1077.23 850.476 1067.82 832.13L1055.37 838.519ZM1067.82 895.487C1067.82 939.009 1050.01 972.774 1014 997.477L1021.92 1009.02C1061.72 981.717 1081.82 943.64 1081.82 895.487H1067.82ZM1014.05 997.446C977.432 1022.14 934.317 1034.59 884.413 1034.59V1048.59C936.764 1048.59 982.679 1035.49 1021.87 1009.05L1014.05 997.446ZM884.413 1034.59C828.351 1034.59 783.311 1020.17 748.685 991.879L739.827 1002.72C777.483 1033.49 825.881 1048.59 884.413 1048.59V1034.59ZM748.717 991.906C714.635 963.714 694.868 924.519 689.736 873.628L675.807 875.033C681.253 929.04 702.475 971.825 739.794 1002.69L748.717 991.906ZM682.771 881.331H765.411V867.331H682.771V881.331ZM758.587 875.888C766.331 909.824 780.976 936.018 803.016 953.674C825.061 971.334 853.738 979.838 888.38 979.838V965.838C856.029 965.838 830.714 957.924 811.769 942.748C792.82 927.568 779.478 904.509 772.236 872.773L758.587 875.888ZM888.38 979.838C918.91 979.838 944.807 973.226 965.617 959.51L957.912 947.821C939.937 959.668 916.911 965.838 888.38 965.838V979.838ZM965.617 959.51C986.896 945.485 997.854 925.7 997.854 900.776H983.854C983.854 920.808 975.419 936.282 957.912 947.821L965.617 959.51ZM997.854 900.776C997.854 876.34 987.358 857.493 966.667 845.176L959.506 857.207C975.838 866.928 983.854 881.136 983.854 900.776H997.854ZM966.731 845.215C947.697 833.609 923.224 825.229 893.599 819.843L891.095 833.617C919.649 838.809 942.335 846.737 959.443 857.168L966.731 845.215ZM1252.54 765.246L1247.22 760.699L1247.19 760.732L1247.17 760.764L1252.54 765.246ZM1252.54 946.393L1247.17 950.874L1247.22 950.935L1247.27 950.995L1252.54 946.393ZM1386.75 946.393L1381.43 941.847L1381.42 941.856L1386.75 946.393ZM1386.75 765.246L1381.37 769.727L1381.4 769.76L1381.43 769.792L1386.75 765.246ZM1196.35 717.645L1191.6 712.504L1191.58 712.519L1191.57 712.534L1196.35 717.645ZM1442.95 717.645L1438.16 722.756L1438.18 722.771L1438.2 722.786L1442.95 717.645ZM1442.95 993.994L1438.23 988.82L1438.22 988.835L1438.2 988.85L1442.95 993.994ZM1196.35 993.994L1191.6 999.137L1191.62 999.153L1191.63 999.167L1196.35 993.994ZM1247.17 760.764C1228.12 783.618 1219.1 815.638 1219.1 855.819H1233.1C1233.1 817.548 1241.71 789.185 1257.92 769.727L1247.17 760.764ZM1219.1 855.819C1219.1 896.001 1228.12 928.02 1247.17 950.874L1257.92 941.912C1241.71 922.454 1233.1 894.091 1233.1 855.819H1219.1ZM1247.27 950.995C1266.64 973.194 1291.02 984.466 1319.98 984.466V970.466C1295.17 970.466 1274.59 961.022 1257.82 941.791L1247.27 950.995ZM1319.98 984.466C1348.94 984.466 1373.14 973.187 1392.08 950.93L1381.42 941.856C1365.1 961.03 1344.78 970.466 1319.98 970.466V984.466ZM1392.07 950.939C1411.6 928.083 1420.86 896.037 1420.86 855.819H1406.86C1406.86 894.055 1398.05 922.392 1381.43 941.847L1392.07 950.939ZM1420.86 855.819C1420.86 815.602 1411.6 783.556 1392.07 760.699L1381.43 769.792C1398.05 789.247 1406.86 817.584 1406.86 855.819H1420.86ZM1392.13 760.764C1373.21 738.057 1349 726.512 1319.98 726.512V740.512C1344.73 740.512 1365.04 750.122 1381.37 769.727L1392.13 760.764ZM1319.98 726.512C1290.97 726.512 1266.57 738.049 1247.22 760.699L1257.87 769.792C1274.66 750.131 1295.22 740.512 1319.98 740.512V726.512ZM1201.1 722.786C1234.62 691.812 1274.13 676.383 1319.98 676.383V662.383C1270.63 662.383 1227.72 679.129 1191.6 712.504L1201.1 722.786ZM1319.98 676.383C1365.82 676.383 1405.1 691.81 1438.16 722.756L1447.73 712.534C1412.04 679.131 1369.33 662.383 1319.98 662.383V676.383ZM1438.2 722.786C1471.22 753.303 1488.18 797.28 1488.18 855.819H1502.18C1502.18 794.475 1484.31 746.336 1447.7 712.504L1438.2 722.786ZM1488.18 855.819C1488.18 914.822 1471.21 958.764 1438.23 988.82L1447.66 999.167C1484.32 965.756 1502.18 917.581 1502.18 855.819H1488.18ZM1438.2 988.85C1405.14 1019.37 1365.85 1034.59 1319.98 1034.59V1048.59C1369.31 1048.59 1412 1032.09 1447.7 999.137L1438.2 988.85ZM1319.98 1034.59C1274.1 1034.59 1234.58 1019.37 1201.06 988.82L1191.63 999.167C1227.76 1032.09 1270.65 1048.59 1319.98 1048.59V1034.59ZM1201.1 988.85C1168.54 958.8 1151.78 914.849 1151.78 855.819H1137.78C1137.78 917.555 1155.4 965.719 1191.6 999.137L1201.1 988.85ZM1151.78 855.819C1151.78 797.254 1168.53 753.267 1201.13 722.756L1191.57 712.534C1155.41 746.372 1137.78 794.502 1137.78 855.819H1151.78ZM1660.89 765.246L1655.57 760.699L1655.54 760.732L1655.51 760.764L1660.89 765.246ZM1660.89 946.393L1655.51 950.874L1655.56 950.935L1655.62 950.995L1660.89 946.393ZM1795.1 946.393L1789.78 941.847L1789.77 941.856L1795.1 946.393ZM1795.1 765.246L1789.72 769.727L1789.75 769.76L1789.78 769.792L1795.1 765.246ZM1604.7 717.645L1599.94 712.504L1599.93 712.519L1599.91 712.534L1604.7 717.645ZM1851.29 717.645L1846.51 722.756L1846.53 722.771L1846.54 722.786L1851.29 717.645ZM1851.29 993.994L1846.58 988.82L1846.56 988.835L1846.55 988.85L1851.29 993.994ZM1604.7 993.994L1599.95 999.137L1599.96 999.153L1599.98 999.167L1604.7 993.994ZM1655.51 760.764C1636.47 783.618 1627.45 815.638 1627.45 855.819H1641.45C1641.45 817.548 1650.05 789.185 1666.27 769.727L1655.51 760.764ZM1627.45 855.819C1627.45 896.001 1636.47 928.02 1655.51 950.874L1666.27 941.912C1650.05 922.454 1641.45 894.091 1641.45 855.819H1627.45ZM1655.62 950.995C1674.98 973.194 1699.37 984.466 1728.32 984.466V970.466C1703.51 970.466 1682.94 961.022 1666.17 941.791L1655.62 950.995ZM1728.32 984.466C1757.29 984.466 1781.49 973.187 1800.43 950.93L1789.77 941.856C1773.45 961.03 1753.13 970.466 1728.32 970.466V984.466ZM1800.42 950.939C1819.94 928.083 1829.2 896.037 1829.2 855.819H1815.2C1815.2 894.055 1806.39 922.392 1789.78 941.847L1800.42 950.939ZM1829.2 855.819C1829.2 815.602 1819.94 783.556 1800.42 760.699L1789.78 769.792C1806.39 789.247 1815.2 817.584 1815.2 855.819H1829.2ZM1800.48 760.764C1781.55 738.057 1757.35 726.512 1728.32 726.512V740.512C1753.08 740.512 1773.38 750.122 1789.72 769.727L1800.48 760.764ZM1728.32 726.512C1699.31 726.512 1674.92 738.049 1655.57 760.699L1666.21 769.792C1683.01 750.131 1703.57 740.512 1728.32 740.512V726.512ZM1609.45 722.786C1642.97 691.812 1682.48 676.383 1728.32 676.383V662.383C1678.97 662.383 1636.06 679.129 1599.94 712.504L1609.45 722.786ZM1728.32 676.383C1774.17 676.383 1813.44 691.81 1846.51 722.756L1856.08 712.534C1820.39 679.131 1777.68 662.383 1728.32 662.383V676.383ZM1846.54 722.786C1879.57 753.303 1896.52 797.28 1896.52 855.819H1910.52C1910.52 794.475 1892.66 746.336 1856.04 712.504L1846.54 722.786ZM1896.52 855.819C1896.52 914.822 1879.56 958.764 1846.58 988.82L1856.01 999.167C1892.67 965.756 1910.52 917.581 1910.52 855.819H1896.52ZM1846.55 988.85C1813.49 1019.37 1774.2 1034.59 1728.32 1034.59V1048.59C1777.65 1048.59 1820.35 1032.09 1856.04 999.137L1846.55 988.85ZM1728.32 1034.59C1682.45 1034.59 1642.93 1019.37 1609.41 988.82L1599.98 999.167C1636.1 1032.09 1679 1048.59 1728.32 1048.59V1034.59ZM1609.44 988.85C1576.89 958.8 1560.13 914.849 1560.13 855.819H1546.13C1546.13 917.555 1563.74 965.719 1599.95 999.137L1609.44 988.85ZM1560.13 855.819C1560.13 797.254 1576.88 753.267 1609.48 722.756L1599.91 712.534C1563.76 746.372 1546.13 794.502 1546.13 855.819H1560.13ZM2060.07 677.316H2067.07V670.316H2060.07V677.316ZM2060.07 726.901H2053.07L2066.2 730.282L2060.07 726.901ZM2288.82 1033V1040H2295.82V1033H2288.82ZM2210.15 1033H2203.15V1040H2210.15V1033ZM2207.5 793.013L2200.57 793.959L2200.59 794.112L2200.62 794.265L2207.5 793.013ZM2198.91 763.923L2192.39 766.474L2192.46 766.649L2192.54 766.82L2198.91 763.923ZM2178.41 741.445L2174.94 747.523L2175.11 747.619L2175.28 747.706L2178.41 741.445ZM2060.07 1033V1040H2067.07V1033H2060.07ZM1981.4 1033H1974.4V1040H1981.4V1033ZM1981.4 677.316V670.316H1974.4V677.316H1981.4ZM2053.07 677.316V726.901H2067.07V677.316H2053.07ZM2066.2 730.282C2085.91 694.563 2119.22 676.383 2167.84 676.383V662.383C2115.08 662.383 2076.55 682.548 2053.94 723.519L2066.2 730.282ZM2167.84 676.383C2206.8 676.383 2234.82 687.618 2253.28 708.997C2271.9 730.572 2281.82 763.669 2281.82 809.541H2295.82C2295.82 761.974 2285.58 724.993 2263.87 699.848C2242 674.507 2209.53 662.383 2167.84 662.383V676.383ZM2281.82 809.541V1033H2295.82V809.541H2281.82ZM2288.82 1026H2210.15V1040H2288.82V1026ZM2217.15 1033V828.713H2203.15V1033H2217.15ZM2217.15 828.713C2217.15 814.353 2216.25 802.005 2214.39 791.761L2200.62 794.265C2202.28 803.414 2203.15 814.866 2203.15 828.713H2217.15ZM2214.44 792.067C2213.02 781.64 2209.95 771.288 2205.28 761.027L2192.54 766.82C2196.69 775.951 2199.35 784.993 2200.57 793.959L2214.44 792.067ZM2205.43 761.373C2200.83 749.629 2192.8 740.811 2181.54 735.184L2175.28 747.706C2183.42 751.776 2189.05 757.943 2192.39 766.474L2205.43 761.373ZM2181.89 735.368C2171.26 729.293 2158.05 726.512 2142.71 726.512V740.512C2156.47 740.512 2167.06 743.019 2174.94 747.523L2181.89 735.368ZM2142.71 726.512C2113.45 726.512 2090.49 736.392 2075.13 756.919C2060.05 777.065 2053.07 806.446 2053.07 843.919H2067.07C2067.07 807.788 2073.87 781.965 2086.34 765.308C2098.52 749.033 2116.88 740.512 2142.71 740.512V726.512ZM2053.07 843.919V1033H2067.07V843.919H2053.07ZM2060.07 1026H1981.4V1040H2060.07V1026ZM1988.4 1033V677.316H1974.4V1033H1988.4ZM1981.4 684.316H2060.07V670.316H1981.4V684.316Z" fill="black" mask="url(#path-1-outside-1_3711_695)"/>
</mask>
<g mask="url(#mask0_3711_695)">
<rect x="258" y="-42" width="2471" height="1407" fill="#212121"/>
<path fill-rule="evenodd" clip-rule="evenodd" d="M-281.653 416.689L-219.981 388.247C-158.309 359.805 -32.1607 302.921 91.1839 317.142C217.332 331.363 340.676 416.689 466.824 430.91C590.169 445.131 716.317 388.247 839.662 288.7C963.006 189.152 1089.15 46.942 1212.5 32.721C1338.65 18.4999 1461.99 132.268 1588.14 132.268C1711.48 132.268 1837.63 18.4999 1960.98 -66.8263C2084.32 -152.153 2210.47 -209.037 2333.81 -109.489C2459.96 -9.94215 2583.31 246.037 2709.45 274.479C2832.8 302.921 2958.95 103.826 3020.62 4.27889L3082.29 -95.2684V587.341H3020.62C2958.95 587.341 2832.8 587.341 2709.45 587.341C2583.31 587.341 2459.96 587.341 2333.81 587.341C2210.47 587.341 2084.32 587.341 1960.98 587.341C1837.63 587.341 1711.48 587.341 1588.14 587.341C1461.99 587.341 1338.65 587.341 1212.5 587.341C1089.15 587.341 963.006 587.341 839.662 587.341C716.317 587.341 590.169 587.341 466.824 587.341C340.676 587.341 217.332 587.341 91.1839 587.341C-32.1607 587.341 -158.309 587.341 -219.981 587.341H-281.653V416.689Z" stroke="#7241FF" stroke-width="9.58147"/>
<path fill-rule="evenodd" clip-rule="evenodd" d="M-284.049 -95.2136L-243.177 -53.1359C-204.082 -11.0582 -124.115 74.6001 -44.1478 89.6279C35.8192 103.153 115.786 46.0474 195.753 89.6279C275.72 131.706 330.203 209.602 437.431 230.889C545.578 252.358 620.463 244.764 717 191.5C836.577 125.523 837.266 -95.2136 917.233 -95.2136C997.2 -95.2136 1077.17 -180.872 1157.13 -209.425C1237.1 -237.977 1126.03 -170.711 1206 -56.5005C1287.74 56.2077 1475.46 229.171 1638.71 230.889C1750.52 232.065 1798.65 131.706 1878.61 89.6279C1958.58 46.0474 2038.55 103.153 2118.52 146.733C2198.48 188.811 2278.45 217.364 2358.42 259.442C2438.38 303.022 2520.13 360.128 2600.09 360.128C2680.06 360.128 2760.03 303.022 2840 274.469C2919.96 245.917 2999.93 245.917 3039.02 245.917H3079.9V587.047H3039.02C2999.93 587.047 2919.96 587.047 2840 587.047C2760.03 587.047 2680.06 587.047 2600.09 587.047C2520.13 587.047 2438.38 587.047 2358.42 587.047C2278.45 587.047 2198.48 587.047 2118.52 587.047C2038.55 587.047 1958.58 587.047 1878.61 587.047C1798.65 587.047 1718.68 587.047 1638.71 587.047C1558.75 587.047 1478.78 587.047 1398.81 587.047C1317.07 587.047 1237.1 587.047 1157.13 587.047C1077.17 587.047 997.2 587.047 917.233 587.047C837.266 587.047 757.299 587.047 677.332 587.047C597.365 587.047 517.398 587.047 437.431 587.047C357.464 587.047 275.72 587.047 195.753 587.047C115.786 587.047 35.8192 587.047 -44.1478 587.047C-124.115 587.047 -204.082 587.047 -243.177 587.047H-284.049V-95.2136Z" stroke="#F72585" stroke-width="9.58147"/>
<path d="M3076.21 310.634V513.209H-279.209V311.101C-277.413 310.792 -275.024 310.383 -272.084 309.888C-264.888 308.675 -254.391 306.939 -241.2 304.851C-214.818 300.675 -177.663 295.091 -134.588 289.46C-48.3978 278.191 61.3422 266.755 155.908 265.999C248.686 265.258 312.027 273.299 360.424 286.032C408.772 298.752 442.421 316.207 475.919 334.642C478.906 336.286 481.893 337.939 484.891 339.597C515.528 356.545 547.204 374.068 590.536 388.899C638.127 405.187 699.621 418.186 789.373 423.964C1038.95 440.031 1202.86 389.679 1362.36 340.678L1367.06 339.235C1527.86 289.848 1684.96 242.523 1922.87 265.977C2024.35 275.98 2070.94 297.046 2115.77 317.315C2119.41 318.965 2123.05 320.609 2126.71 322.242C2175.91 344.231 2227.76 363.873 2349.15 365.702C2414.17 366.682 2461.86 359.909 2500.74 349.376C2538.43 339.167 2567.69 325.46 2596.07 312.162L2598.71 310.925C2627.96 297.235 2656.53 284.103 2693.22 275.318C2729.89 266.538 2774.88 262.058 2836.77 265.99C2896.45 269.782 2957.16 281.188 3003 291.672C3025.91 296.91 3045.07 301.91 3058.5 305.599C3065.22 307.443 3070.5 308.959 3074.1 310.012C3074.88 310.242 3075.59 310.45 3076.21 310.634Z" stroke="#D145CB" stroke-width="9.58147"/>
<path fill-rule="evenodd" clip-rule="evenodd" d="M-291.653 1306.69L-229.981 1278.25C-168.309 1249.81 -42.1607 1192.92 81.1839 1207.14C207.332 1221.36 330.676 1306.69 456.824 1320.91C580.169 1335.13 706.317 1278.25 829.662 1178.7C953.006 1079.15 1079.15 936.943 1202.5 922.722C1328.65 908.501 1451.99 1022.27 1578.14 1022.27C1701.48 1022.27 1827.63 908.501 1950.98 823.175C2074.32 737.848 2200.47 680.964 2323.81 780.512C2449.96 880.059 2573.31 1136.04 2699.45 1164.48C2822.8 1192.92 2948.95 993.827 3010.62 894.28L3072.29 794.733V1477.34H3010.62C2948.95 1477.34 2822.8 1477.34 2699.45 1477.34C2573.31 1477.34 2449.96 1477.34 2323.81 1477.34C2200.47 1477.34 2074.32 1477.34 1950.98 1477.34C1827.63 1477.34 1701.48 1477.34 1578.14 1477.34C1451.99 1477.34 1328.65 1477.34 1202.5 1477.34C1079.15 1477.34 953.006 1477.34 829.662 1477.34C706.317 1477.34 580.169 1477.34 456.824 1477.34C330.676 1477.34 207.332 1477.34 81.1839 1477.34C-42.1607 1477.34 -168.309 1477.34 -229.981 1477.34H-291.653V1306.69Z" stroke="#7241FF" stroke-width="9.58147"/>
</g>
</svg>
