<svg xmlns="http://www.w3.org/2000/svg" width="24" height="24" fill="none" viewBox="0 0 24 24" id="groupme"><path fill="#4DC4FF" d="M5 1.25C3.48122 1.25 2.25 2.48122 2.25 4V16C2.25 17.5188 3.48122 18.75 5 18.75H9.17536L11.3569 22.3859C11.4924 22.6118 11.7366 22.75 12 22.75C12.2634 22.75 12.5076 22.6118 12.6431 22.3859L14.8246 18.75H19C20.5188 18.75 21.75 17.5188 21.75 16V4C21.75 2.48122 20.5188 1.25 19 1.25H5Z"></path><path fill="#ECEFF1" fill-rule="evenodd" d="M10.5 3.25C10.9142 3.25 11.25 3.58579 11.25 4V11C11.25 11.4142 10.9142 11.75 10.5 11.75 10.0858 11.75 9.75 11.4142 9.75 11V4C9.75 3.58579 10.0858 3.25 10.5 3.25zM13.5 3.25C13.9142 3.25 14.25 3.58579 14.25 4V11C14.25 11.4142 13.9142 11.75 13.5 11.75 13.0858 11.75 12.75 11.4142 12.75 11V4C12.75 3.58579 13.0858 3.25 13.5 3.25z" clip-rule="evenodd"></path><path fill="#ECEFF1" fill-rule="evenodd" d="M4.90557 11.5427C5.15812 11.2144 5.629 11.153 5.95732 11.4055L7.57963 12.6534C10.1857 14.6581 13.8144 14.6581 16.4204 12.6534L18.0428 11.4055C18.3711 11.153 18.842 11.2144 19.0945 11.5427 19.3471 11.871 19.2856 12.3419 18.9573 12.5944L17.335 13.8424C14.1898 16.2618 9.81027 16.2618 6.66507 13.8424L5.04275 12.5944C4.71444 12.3419 4.65302 11.871 4.90557 11.5427zM7.75 6C7.75 5.58579 8.08579 5.25 8.5 5.25H15.5C15.9142 5.25 16.25 5.58579 16.25 6 16.25 6.41421 15.9142 6.75 15.5 6.75L8.5 6.75C8.08579 6.75 7.75 6.41421 7.75 6zM7.75 9C7.75 8.58579 8.08579 8.25 8.5 8.25H15.5C15.9142 8.25 16.25 8.58579 16.25 9 16.25 9.41421 15.9142 9.75 15.5 9.75H8.5C8.08579 9.75 7.75 9.41421 7.75 9z" clip-rule="evenodd"></path></svg>