<?xml version="1.0" encoding="UTF-8"?> <svg xmlns="http://www.w3.org/2000/svg" xmlns:xlink="http://www.w3.org/1999/xlink" id="a" width="358.46" height="100" viewBox="0 0 358.46 100"><defs><clipPath id="b"><path d="m296.94,12.5c0,6.91-5.6,12.5-12.5,12.5,13.78,0,25,11.22,25,25s-11.21,25-25,25c-6.9,0-12.5,5.6-12.5,12.5s5.6,12.5,12.5,12.5c27.61,0,50-22.38,50-50S312.05,0,284.44,0c6.9,0,12.5,5.6,12.5,12.5" fill="none"></path></clipPath><linearGradient id="d" x1="-790.04" y1="385.39" x2="-787.9" y2="385.39" gradientTransform="translate(-17712.53 36932.09) rotate(90) scale(46.75 -46.75)" gradientUnits="userSpaceOnUse"><stop offset="0" stop-color="#2e2e2e"></stop><stop offset="0" stop-color="#333"></stop><stop offset=".11" stop-color="#696969"></stop><stop offset=".2" stop-color="#979797"></stop><stop offset=".3" stop-color="#bcbcbc"></stop><stop offset=".39" stop-color="#d9d9d9"></stop><stop offset=".49" stop-color="#eee"></stop><stop offset=".58" stop-color="#fafafa"></stop><stop offset=".67" stop-color="#fff"></stop><stop offset="1" stop-color="#fff"></stop></linearGradient><mask id="c" x="271.94" y="0" width="62.5" height="100" maskUnits="userSpaceOnUse"><rect x="271.94" y="0" width="62.5" height="100" fill="url(#d)"></rect></mask><linearGradient id="e" x1="-790.04" y1="385.39" x2="-787.9" y2="385.39" gradientTransform="translate(-17712.53 36932.09) rotate(90) scale(46.75 -46.75)" gradientUnits="userSpaceOnUse"><stop offset="0" stop-color="#0153ff"></stop><stop offset=".67" stop-color="#0153ff"></stop><stop offset="1" stop-color="#0153ff"></stop></linearGradient><clipPath id="f"><path d="m234.44,50c0,27.61,22.39,50,50,50-6.9,0-12.5-5.6-12.5-12.5s5.6-12.5,12.5-12.5c-13.78,0-25-11.22-25-25s11.22-25,25-25c6.9,0,12.5-5.59,12.5-12.5s-5.6-12.5-12.5-12.5c-27.61,0-50,22.39-50,50" fill="none"></path></clipPath><linearGradient id="h" x1="-798.19" y1="363.04" x2="-796.05" y2="363.04" gradientTransform="translate(17236.91 -37213.21) rotate(-90) scale(46.75 -46.75)" xlink:href="#d"></linearGradient><mask id="g" x="234.44" y="0" width="62.5" height="100" maskUnits="userSpaceOnUse"><rect x="234.44" y="0" width="62.5" height="100" fill="url(#h)"></rect></mask><linearGradient id="i" x1="-798.19" y1="363.04" x2="-796.05" y2="363.04" gradientTransform="translate(17236.91 -37213.21) rotate(-90) scale(46.75 -46.75)" xlink:href="#e"></linearGradient></defs><g clip-path="url(#b)"><g mask="url(#c)"><rect x="271.94" y="0" width="62.5" height="100" fill="url(#e)"></rect></g></g><g clip-path="url(#f)"><g mask="url(#g)"><rect x="234.44" y="0" width="62.5" height="100" fill="url(#i)"></rect></g></g><polygon points="334.49 .12 334.49 2.17 338.09 2.17 338.09 11.86 340.54 11.86 340.54 2.17 344.13 2.17 344.13 .12 334.49 .12" fill="#0153ff"></polygon><polygon points="355.39 .12 352.16 8.01 352.02 8.01 348.79 .12 345.73 .12 345.73 11.86 348.14 11.86 348.14 4.19 348.23 4.19 351.27 11.8 352.91 11.8 355.95 4.22 356.05 4.22 356.05 11.86 358.46 11.86 358.46 .12 355.39 .12" fill="#0153ff"></polygon><path d="m102.5,0C90.79,0,80.18,4.74,72.5,12.4,64.81,4.74,54.21,0,42.5,0,19.03,0,0,19.03,0,42.5v57.5h25v-57.5c0-9.65,7.85-17.5,17.5-17.5s17.5,7.85,17.5,17.5v57.5h25v-57.5c0-9.65,7.85-17.5,17.5-17.5s17.5,7.85,17.5,17.5v57.5h25v-57.5C145,19.03,125.97,0,102.5,0" fill="#0153ff"></path><path d="m216.08.14c-34.04,0-52.04,18.26-52.04,52.82v47.04h25.05v-47.04c0-16.84,10.85-28.15,26.99-28.15h11.65V.14h-11.65Z" fill="#0153ff"></path></svg> 