<svg width="158" height="135" viewBox="0 0 158 135" fill="none" xmlns="http://www.w3.org/2000/svg">
<path d="M97.4443 100.346C98.2019 100.349 98.951 100.507 99.6451 100.81C100.339 101.113 100.963 101.555 101.479 102.109C103.74 104.595 103.74 108.641 101.485 111.123L86.2524 127.771C82.0886 132.315 76.5542 134.821 70.6673 134.821C64.7803 134.821 59.2459 132.315 55.0835 127.771L12.8607 81.6218C4.68379 72.7889 -0.00624227 60.515 9.06029e-05 47.9443C-0.0185355 37.8078 2.83503 28.105 8.25579 19.8846C16.4598 7.43349 29.7503 0 43.808 0C53.0194 0 61.8525 3.12371 69.3523 9.02929C69.7236 9.32856 70.1863 9.49204 70.6634 9.49258C71.1406 9.49313 71.6035 9.33069 71.9754 9.03226C79.441 3.21076 88.23 0.130567 97.3892 0.130567C109.189 0.132241 120.249 5.1804 128.539 14.3456C131.135 17.2142 133.392 20.3721 135.264 23.7568C136.329 26.4787 135.525 29.6899 133.324 31.4402C132.353 32.228 131.142 32.6599 129.891 32.664C128.98 32.6573 128.083 32.4316 127.278 32.0058C126.473 31.58 125.782 30.9668 125.264 30.2181C123.859 27.6377 122.154 25.2323 120.183 23.0519C114.043 16.6713 105.997 13.1572 97.5256 13.1572C89.0541 13.1572 81.009 16.6724 74.7883 23.1419C74.2685 23.7289 73.6288 24.198 72.9124 24.5179C72.196 24.8377 71.4196 25.0008 70.6349 24.9962C69.8502 24.9917 69.0754 24.8195 68.3628 24.4913C67.6502 24.1632 67.0162 23.6866 66.5033 23.0935C60.4362 16.4814 52.376 12.8421 43.8095 12.8421C35.2429 12.8421 27.1824 16.4814 21.1118 23.095C15.0183 29.7789 11.6883 38.5901 11.6911 47.9591C11.6926 57.3446 15.0384 66.1667 21.1118 72.8023L63.3774 119C65.33 121.118 67.919 122.283 70.6673 122.283C73.4485 122.283 76.0593 121.092 78.0118 118.942L93.3784 102.144C93.896 101.582 94.5243 101.132 95.2239 100.822C95.9234 100.513 96.6792 100.351 97.4443 100.346Z" fill="#F0F8FF"/>
<path d="M151.689 55.8978C154.914 55.8978 157.541 58.7682 157.541 62.2949C157.541 65.8217 154.915 68.6898 151.689 68.6898H134.917C134.615 68.6927 134.317 68.7587 134.042 68.8837C133.767 69.0086 133.522 69.1897 133.321 69.4152L119.56 84.5476C119.044 85.1245 118.413 85.5876 117.708 85.9072C117.002 86.2268 116.238 86.3958 115.463 86.4036C114.645 86.3656 113.845 86.1513 113.118 85.7755C112.391 85.3997 111.754 84.8712 111.25 84.2264L88.5634 55.977C88.3711 55.7238 88.1239 55.517 87.8406 55.3722C87.5572 55.2273 87.2449 55.148 86.9267 55.1402C86.6085 55.1324 86.2926 55.1963 86.0025 55.3271C85.7124 55.4579 85.4555 55.6522 85.2509 55.8958L74.8355 67.7218C74.31 68.3058 73.667 68.7727 72.9487 69.0922C72.2305 69.4117 71.453 69.5766 70.6667 69.5761H54.4644C51.2378 69.5761 48.6125 66.7059 48.6125 63.178C48.6125 59.6502 51.2388 56.784 54.4644 56.784H67.3472C67.6481 56.7814 67.9451 56.7158 68.2191 56.5916C68.493 56.4674 68.7379 56.2872 68.9379 56.0628L82.7608 40.9553C82.8524 40.8467 82.947 40.7413 83.0345 40.6529C83.5674 40.0878 84.2143 39.6419 84.9322 39.3445C85.6502 39.0471 86.4231 38.9049 87.2001 38.9273C87.9771 38.9498 88.7404 39.1363 89.44 39.4747C90.1396 39.813 90.7595 40.2955 91.2588 40.8904L113.943 69.1439C114.136 69.3966 114.384 69.6028 114.667 69.7474C114.951 69.8919 115.263 69.971 115.581 69.9789C115.9 69.9868 116.216 69.9232 116.506 69.7929C116.796 69.6625 117.054 69.4688 117.259 69.2259L127.287 57.8172C127.806 57.2266 128.443 56.7508 129.157 56.4201C129.871 56.0895 130.647 55.9113 131.433 55.8971L151.689 55.8978Z" fill="#F0F8FF"/>
</svg>
