<svg width="1440" height="296" viewBox="0 0 1440 296" fill="none" xmlns="http://www.w3.org/2000/svg">
<mask id="mask0_527_64" style="mask-type:alpha" maskUnits="userSpaceOnUse" x="-31" y="142" width="1743" height="224">
<path d="M118 152.066C180.908 111.474 227.139 206.826 302 205.883C373.775 204.978 405.971 152.514 477.75 152.066C551.024 151.608 584.225 205.855 657.5 205.883C730.869 205.911 764.136 151.193 837.5 152.066C908.063 152.905 939.45 204.291 1010 205.883C1086.07 207.598 1121.17 151.109 1197.25 152.066C1270.15 152.983 1303.1 205.632 1376 205.883C1449.74 206.136 1494.54 112.867 1557 152.066C1627.46 196.281 1711.5 365.066 1711.5 365.066H-31C-31 365.066 48.1061 197.166 118 152.066Z" fill="#D9D9D9"/>
</mask>
<g mask="url(#mask0_527_64)">
<path d="M29.4614 283V0.492986H73.0482V283H29.4614ZM133.144 283V84.0343H173.906V113.899H180.363C184.13 105.828 190.856 98.2942 200.542 91.2988C210.228 84.3034 224.622 80.8057 243.725 80.8057C258.792 80.8057 272.111 84.1689 283.68 90.8952C295.518 97.6216 304.801 107.173 311.527 119.55C318.253 131.657 321.617 146.32 321.617 163.54V283H280.048V166.769C280.048 149.549 275.743 136.904 267.133 128.832C258.523 120.491 246.685 116.321 231.618 116.321C214.398 116.321 200.542 121.971 190.049 133.271C179.825 144.572 174.713 160.984 174.713 182.508V283H133.144ZM381.441 283V84.0343H422.203V113.899H428.66C432.427 105.828 439.153 98.2942 448.839 91.2988C458.525 84.3034 472.92 80.8057 492.023 80.8057C507.09 80.8057 520.408 84.1689 531.977 90.8952C543.815 97.6216 553.098 107.173 559.824 119.55C566.551 131.657 569.914 146.32 569.914 163.54V283H528.345V166.769C528.345 149.549 524.04 136.904 515.43 128.832C506.821 120.491 494.982 116.321 479.915 116.321C462.696 116.321 448.839 121.971 438.346 133.271C428.122 144.572 423.01 160.984 423.01 182.508V283H381.441ZM720.948 288.65C700.769 288.65 683.146 284.48 668.079 276.139C653.012 267.529 641.173 255.556 632.563 240.22C624.223 224.615 620.052 206.589 620.052 186.14V181.297C620.052 160.58 624.223 142.554 632.563 127.218C640.904 111.612 652.473 99.6395 667.271 91.2988C682.338 82.6891 699.692 78.3842 719.333 78.3842C738.436 78.3842 755.118 82.6891 769.378 91.2988C783.906 99.6395 795.207 111.343 803.278 126.41C811.35 141.477 815.386 159.1 815.386 179.28V195.019H662.428C662.967 212.508 668.751 226.499 679.782 236.992C691.083 247.216 705.074 252.328 721.755 252.328C737.36 252.328 749.064 248.83 756.867 241.835C764.938 234.839 771.126 226.768 775.431 217.62L809.736 235.377C805.969 242.911 800.453 250.848 793.189 259.189C786.193 267.529 776.911 274.525 765.342 280.175C753.772 285.825 738.974 288.65 720.948 288.65ZM662.832 163.136H773.01C771.934 148.069 766.552 136.365 756.867 128.025C747.181 119.415 734.535 115.11 718.93 115.11C703.325 115.11 690.545 119.415 680.59 128.025C670.904 136.365 664.984 148.069 662.832 163.136ZM865.424 283V84.0343H906.185V107.442H912.643C915.871 99.1014 920.983 93.0477 927.979 89.2809C935.243 85.2451 944.122 83.2272 954.615 83.2272H978.426V120.76H953.001C939.548 120.76 928.517 124.527 919.907 132.061C911.297 139.325 906.992 150.625 906.992 165.961V283H865.424ZM1067.5 283L1000.51 84.0343H1044.5L1097.37 252.328H1103.83L1156.7 84.0343H1200.69L1133.69 283H1067.5ZM1325.14 288.65C1304.96 288.65 1287.34 284.48 1272.27 276.139C1257.2 267.529 1245.36 255.556 1236.75 240.22C1228.41 224.615 1224.24 206.589 1224.24 186.14V181.297C1224.24 160.58 1228.41 142.554 1236.75 127.218C1245.09 111.612 1256.66 99.6395 1271.46 91.2988C1286.53 82.6891 1303.88 78.3842 1323.52 78.3842C1342.63 78.3842 1359.31 82.6891 1373.57 91.2988C1388.1 99.6395 1399.4 111.343 1407.47 126.41C1415.54 141.477 1419.58 159.1 1419.58 179.28V195.019H1266.62C1267.16 212.508 1272.94 226.499 1283.97 236.992C1295.27 247.216 1309.26 252.328 1325.94 252.328C1341.55 252.328 1353.25 248.83 1361.06 241.835C1369.13 234.839 1375.32 226.768 1379.62 217.62L1413.93 235.377C1410.16 242.911 1404.64 250.848 1397.38 259.189C1390.38 267.529 1381.1 274.525 1369.53 280.175C1357.96 285.825 1343.16 288.65 1325.14 288.65ZM1267.02 163.136H1377.2C1376.12 148.069 1370.74 136.365 1361.06 128.025C1351.37 119.415 1338.72 115.11 1323.12 115.11C1307.51 115.11 1294.73 119.415 1284.78 128.025C1275.09 136.365 1269.17 148.069 1267.02 163.136Z" fill="url(#paint0_linear_527_64)"/>
</g>
<mask id="mask1_527_64" style="mask-type:alpha" maskUnits="userSpaceOnUse" x="-32" y="167" width="1503" height="224">
<path d="M-0.000471115 177.183C62.907 136.591 109.139 231.943 184 231C255.774 230.095 287.971 177.631 359.75 177.183C433.024 176.726 466.224 230.972 539.5 231C612.868 231.028 646.136 176.311 719.5 177.183C790.062 178.022 821.45 229.409 892 231C968.066 232.715 1003.17 176.226 1079.25 177.183C1152.15 178.1 1185.1 230.749 1258 231C1331.74 231.253 1376.54 137.984 1439 177.183C1509.46 221.399 1439 390.183 1439 390.183H-0.000471115C-0.000471115 390.183 -69.8944 222.283 -0.000471115 177.183Z" fill="#D9D9D9"/>
</mask>
<g mask="url(#mask1_527_64)">
<path d="M29.4614 283V0.492742H73.0482V283H29.4614ZM133.144 283V84.0341H173.906V113.899H180.363C184.13 105.827 190.856 98.294 200.542 91.2986C210.228 84.3032 224.622 80.8054 243.725 80.8054C258.792 80.8054 272.111 84.1686 283.68 90.895C295.518 97.6213 304.801 107.173 311.527 119.549C318.253 131.657 321.617 146.32 321.617 163.54V283H280.048V166.768C280.048 149.549 275.743 136.903 267.133 128.832C258.523 120.491 246.685 116.321 231.618 116.321C214.398 116.321 200.542 121.971 190.049 133.271C179.825 144.571 174.713 160.984 174.713 182.508V283H133.144ZM381.441 283V84.0341H422.203V113.899H428.66C432.427 105.827 439.153 98.294 448.839 91.2986C458.525 84.3032 472.92 80.8054 492.023 80.8054C507.09 80.8054 520.408 84.1686 531.977 90.895C543.815 97.6213 553.098 107.173 559.824 119.549C566.551 131.657 569.914 146.32 569.914 163.54V283H528.345V166.768C528.345 149.549 524.04 136.903 515.43 128.832C506.821 120.491 494.982 116.321 479.915 116.321C462.696 116.321 448.839 121.971 438.346 133.271C428.122 144.571 423.01 160.984 423.01 182.508V283H381.441ZM720.948 288.65C700.769 288.65 683.146 284.48 668.079 276.139C653.012 267.529 641.173 255.556 632.563 240.22C624.223 224.615 620.052 206.588 620.052 186.14V181.297C620.052 160.58 624.223 142.553 632.563 127.217C640.904 111.612 652.473 99.6393 667.271 91.2986C682.338 82.6888 699.692 78.384 719.333 78.384C738.436 78.384 755.118 82.6888 769.378 91.2986C783.906 99.6393 795.207 111.343 803.278 126.41C811.35 141.477 815.386 159.1 815.386 179.279V195.019H662.428C662.967 212.508 668.751 226.498 679.782 236.991C691.083 247.216 705.074 252.328 721.755 252.328C737.36 252.328 749.064 248.83 756.867 241.834C764.938 234.839 771.126 226.767 775.431 217.62L809.736 235.377C805.969 242.911 800.453 250.848 793.189 259.188C786.193 267.529 776.911 274.525 765.342 280.175C753.772 285.825 738.974 288.65 720.948 288.65ZM662.832 163.136H773.01C771.934 148.069 766.552 136.365 756.867 128.024C747.181 119.415 734.535 115.11 718.93 115.11C703.325 115.11 690.545 119.415 680.59 128.024C670.904 136.365 664.984 148.069 662.832 163.136ZM865.424 283V84.0341H906.185V107.442H912.643C915.871 99.1011 920.983 93.0474 927.979 89.2807C935.243 85.2448 944.122 83.2269 954.615 83.2269H978.426V120.76H953.001C939.548 120.76 928.517 124.527 919.907 132.06C911.297 139.325 906.992 150.625 906.992 165.961V283H865.424ZM1067.5 283L1000.51 84.0341H1044.5L1097.37 252.328H1103.83L1156.7 84.0341H1200.69L1133.69 283H1067.5ZM1325.14 288.65C1304.96 288.65 1287.34 284.48 1272.27 276.139C1257.2 267.529 1245.36 255.556 1236.75 240.22C1228.41 224.615 1224.24 206.588 1224.24 186.14V181.297C1224.24 160.58 1228.41 142.553 1236.75 127.217C1245.09 111.612 1256.66 99.6393 1271.46 91.2986C1286.53 82.6888 1303.88 78.384 1323.52 78.384C1342.63 78.384 1359.31 82.6888 1373.57 91.2986C1388.1 99.6393 1399.4 111.343 1407.47 126.41C1415.54 141.477 1419.58 159.1 1419.58 179.279V195.019H1266.62C1267.16 212.508 1272.94 226.498 1283.97 236.991C1295.27 247.216 1309.26 252.328 1325.94 252.328C1341.55 252.328 1353.25 248.83 1361.06 241.834C1369.13 234.839 1375.32 226.767 1379.62 217.62L1413.93 235.377C1410.16 242.911 1404.64 250.848 1397.38 259.188C1390.38 267.529 1381.1 274.525 1369.53 280.175C1357.96 285.825 1343.16 288.65 1325.14 288.65ZM1267.02 163.136H1377.2C1376.12 148.069 1370.74 136.365 1361.06 128.024C1351.37 119.415 1338.72 115.11 1323.12 115.11C1307.51 115.11 1294.73 119.415 1284.78 128.024C1275.09 136.365 1269.17 148.069 1267.02 163.136Z" fill="url(#paint1_linear_527_64)"/>
</g>
<mask id="path-5-outside-1_527_64" maskUnits="userSpaceOnUse" x="27" y="-2" width="1395" height="293" fill="black">
<rect fill="white" x="27" y="-2" width="1395" height="293"/>
<path d="M29.4614 283V0.492986H73.0482V283H29.4614ZM133.144 283V84.0343H173.906V113.899H180.363C184.13 105.828 190.856 98.2942 200.542 91.2988C210.228 84.3034 224.622 80.8057 243.725 80.8057C258.792 80.8057 272.111 84.1689 283.68 90.8952C295.518 97.6216 304.801 107.173 311.527 119.55C318.253 131.657 321.617 146.32 321.617 163.54V283H280.048V166.769C280.048 149.549 275.743 136.904 267.133 128.832C258.523 120.491 246.685 116.321 231.618 116.321C214.398 116.321 200.542 121.971 190.049 133.271C179.825 144.572 174.713 160.984 174.713 182.508V283H133.144ZM381.441 283V84.0343H422.203V113.899H428.66C432.427 105.828 439.153 98.2942 448.839 91.2988C458.525 84.3034 472.92 80.8057 492.023 80.8057C507.09 80.8057 520.408 84.1689 531.977 90.8952C543.815 97.6216 553.098 107.173 559.824 119.55C566.551 131.657 569.914 146.32 569.914 163.54V283H528.345V166.769C528.345 149.549 524.04 136.904 515.43 128.832C506.821 120.491 494.982 116.321 479.915 116.321C462.696 116.321 448.839 121.971 438.346 133.271C428.122 144.572 423.01 160.984 423.01 182.508V283H381.441ZM720.948 288.65C700.769 288.65 683.146 284.48 668.079 276.139C653.012 267.529 641.173 255.556 632.563 240.22C624.223 224.615 620.052 206.589 620.052 186.14V181.297C620.052 160.58 624.223 142.554 632.563 127.218C640.904 111.612 652.473 99.6395 667.271 91.2988C682.338 82.6891 699.692 78.3842 719.333 78.3842C738.436 78.3842 755.118 82.6891 769.378 91.2988C783.906 99.6395 795.207 111.343 803.278 126.41C811.35 141.477 815.386 159.1 815.386 179.28V195.019H662.428C662.967 212.508 668.751 226.499 679.782 236.992C691.083 247.216 705.074 252.328 721.755 252.328C737.36 252.328 749.064 248.83 756.867 241.835C764.938 234.839 771.126 226.768 775.431 217.62L809.736 235.377C805.969 242.911 800.453 250.848 793.189 259.189C786.193 267.529 776.911 274.525 765.342 280.175C753.772 285.825 738.974 288.65 720.948 288.65ZM662.832 163.136H773.01C771.934 148.069 766.552 136.365 756.867 128.025C747.181 119.415 734.535 115.11 718.93 115.11C703.325 115.11 690.545 119.415 680.59 128.025C670.904 136.365 664.984 148.069 662.832 163.136ZM865.424 283V84.0343H906.185V107.442H912.643C915.871 99.1014 920.983 93.0477 927.979 89.2809C935.243 85.2451 944.122 83.2272 954.615 83.2272H978.426V120.76H953.001C939.548 120.76 928.517 124.527 919.907 132.061C911.297 139.325 906.992 150.625 906.992 165.961V283H865.424ZM1067.5 283L1000.51 84.0343H1044.5L1097.37 252.328H1103.83L1156.7 84.0343H1200.69L1133.69 283H1067.5ZM1325.14 288.65C1304.96 288.65 1287.34 284.48 1272.27 276.139C1257.2 267.529 1245.36 255.556 1236.75 240.22C1228.41 224.615 1224.24 206.589 1224.24 186.14V181.297C1224.24 160.58 1228.41 142.554 1236.75 127.218C1245.09 111.612 1256.66 99.6395 1271.46 91.2988C1286.53 82.6891 1303.88 78.3842 1323.52 78.3842C1342.63 78.3842 1359.31 82.6891 1373.57 91.2988C1388.1 99.6395 1399.4 111.343 1407.47 126.41C1415.54 141.477 1419.58 159.1 1419.58 179.28V195.019H1266.62C1267.16 212.508 1272.94 226.499 1283.97 236.992C1295.27 247.216 1309.26 252.328 1325.94 252.328C1341.55 252.328 1353.25 248.83 1361.06 241.835C1369.13 234.839 1375.32 226.768 1379.62 217.62L1413.93 235.377C1410.16 242.911 1404.64 250.848 1397.38 259.189C1390.38 267.529 1381.1 274.525 1369.53 280.175C1357.96 285.825 1343.16 288.65 1325.14 288.65ZM1267.02 163.136H1377.2C1376.12 148.069 1370.74 136.365 1361.06 128.025C1351.37 119.415 1338.72 115.11 1323.12 115.11C1307.51 115.11 1294.73 119.415 1284.78 128.025C1275.09 136.365 1269.17 148.069 1267.02 163.136Z"/>
</mask>
<path d="M29.4614 283H27.4614V285H29.4614V283ZM29.4614 0.492986V-1.50701H27.4614V0.492986H29.4614ZM73.0482 0.492986H75.0482V-1.50701H73.0482V0.492986ZM73.0482 283V285H75.0482V283H73.0482ZM31.4614 283V0.492986H27.4614V283H31.4614ZM29.4614 2.49299H73.0482V-1.50701H29.4614V2.49299ZM71.0482 0.492986V283H75.0482V0.492986H71.0482ZM73.0482 281H29.4614V285H73.0482V281ZM133.144 283H131.144V285H133.144V283ZM133.144 84.0343V82.0343H131.144V84.0343H133.144ZM173.906 84.0343H175.906V82.0343H173.906V84.0343ZM173.906 113.899H171.906V115.899H173.906V113.899ZM180.363 113.899V115.899H181.637L182.175 114.745L180.363 113.899ZM200.542 91.2988L201.713 92.9202L200.542 91.2988ZM283.68 90.8952L282.675 92.6243L282.683 92.6292L282.692 92.6342L283.68 90.8952ZM311.527 119.55L309.77 120.505L309.774 120.513L309.779 120.521L311.527 119.55ZM321.617 283V285H323.617V283H321.617ZM280.048 283H278.048V285H280.048V283ZM267.133 128.832L265.741 130.268L265.753 130.28L265.765 130.291L267.133 128.832ZM190.049 133.271L188.583 131.91L188.575 131.92L188.566 131.929L190.049 133.271ZM174.713 283V285H176.713V283H174.713ZM135.144 283V84.0343H131.144V283H135.144ZM133.144 86.0343H173.906V82.0343H133.144V86.0343ZM171.906 84.0343V113.899H175.906V84.0343H171.906ZM173.906 115.899H180.363V111.899H173.906V115.899ZM182.175 114.745C185.757 107.07 192.213 99.7815 201.713 92.9202L199.371 89.6775C189.5 96.8069 182.503 104.585 178.551 113.054L182.175 114.745ZM201.713 92.9202C210.909 86.2788 224.811 82.8057 243.725 82.8057V78.8057C224.434 78.8057 209.547 82.328 199.371 89.6775L201.713 92.9202ZM243.725 82.8057C258.485 82.8057 271.448 86.0969 282.675 92.6243L284.685 89.1662C272.774 82.2409 259.1 78.8057 243.725 78.8057V82.8057ZM282.692 92.6342C294.194 99.1695 303.215 108.444 309.77 120.505L313.284 118.594C306.386 105.902 296.842 96.0737 284.668 89.1563L282.692 92.6342ZM309.779 120.521C316.304 132.267 319.617 146.579 319.617 163.54H323.617C323.617 146.062 320.202 131.047 313.275 118.578L309.779 120.521ZM319.617 163.54V283H323.617V163.54H319.617ZM321.617 281H280.048V285H321.617V281ZM282.048 283V166.769H278.048V283H282.048ZM282.048 166.769C282.048 149.252 277.669 135.968 268.501 127.373L265.765 130.291C273.817 137.839 278.048 149.846 278.048 166.769H282.048ZM268.525 127.395C259.452 118.606 247.064 114.321 231.618 114.321V118.321C246.306 118.321 257.595 122.376 265.741 130.268L268.525 127.395ZM231.618 114.321C213.914 114.321 199.501 120.153 188.583 131.91L191.515 134.632C201.583 123.789 214.883 118.321 231.618 118.321V114.321ZM188.566 131.929C177.894 143.725 172.713 160.692 172.713 182.508H176.713C176.713 161.276 181.756 145.418 191.532 134.613L188.566 131.929ZM172.713 182.508V283H176.713V182.508H172.713ZM174.713 281H133.144V285H174.713V281ZM381.441 283H379.441V285H381.441V283ZM381.441 84.0343V82.0343H379.441V84.0343H381.441ZM422.203 84.0343H424.203V82.0343H422.203V84.0343ZM422.203 113.899H420.203V115.899H422.203V113.899ZM428.66 113.899V115.899H429.934L430.473 114.745L428.66 113.899ZM448.839 91.2988L450.01 92.9202L448.839 91.2988ZM531.977 90.8952L530.972 92.6243L530.98 92.6292L530.989 92.6342L531.977 90.8952ZM559.824 119.55L558.067 120.505L558.071 120.513L558.076 120.521L559.824 119.55ZM569.914 283V285H571.914V283H569.914ZM528.345 283H526.345V285H528.345V283ZM515.43 128.832L514.039 130.268L514.05 130.28L514.062 130.291L515.43 128.832ZM438.346 133.271L436.881 131.91L436.872 131.92L436.863 131.929L438.346 133.271ZM423.01 283V285H425.01V283H423.01ZM383.441 283V84.0343H379.441V283H383.441ZM381.441 86.0343H422.203V82.0343H381.441V86.0343ZM420.203 84.0343V113.899H424.203V84.0343H420.203ZM422.203 115.899H428.66V111.899H422.203V115.899ZM430.473 114.745C434.054 107.07 440.51 99.7815 450.01 92.9202L447.668 89.6775C437.797 96.8069 430.8 104.585 426.848 113.054L430.473 114.745ZM450.01 92.9202C459.206 86.2788 473.108 82.8057 492.023 82.8057V78.8057C472.731 78.8057 457.845 82.328 447.668 89.6775L450.01 92.9202ZM492.023 82.8057C506.782 82.8057 519.745 86.0969 530.972 92.6243L532.982 89.1662C521.071 82.2409 507.397 78.8057 492.023 78.8057V82.8057ZM530.989 92.6342C542.491 99.1695 551.512 108.444 558.067 120.505L561.581 118.594C554.683 105.902 545.14 96.0737 532.965 89.1563L530.989 92.6342ZM558.076 120.521C564.602 132.267 567.914 146.579 567.914 163.54H571.914C571.914 146.062 568.499 131.047 561.573 118.578L558.076 120.521ZM567.914 163.54V283H571.914V163.54H567.914ZM569.914 281H528.345V285H569.914V281ZM530.345 283V166.769H526.345V283H530.345ZM530.345 166.769C530.345 149.252 525.966 135.968 516.798 127.373L514.062 130.291C522.114 137.839 526.345 149.846 526.345 166.769H530.345ZM516.822 127.395C507.749 118.606 495.362 114.321 479.915 114.321V118.321C494.603 118.321 505.892 122.376 514.039 130.268L516.822 127.395ZM479.915 114.321C462.211 114.321 447.798 120.153 436.881 131.91L439.812 134.632C449.88 123.789 463.18 118.321 479.915 118.321V114.321ZM436.863 131.929C426.191 143.725 421.01 160.692 421.01 182.508H425.01C425.01 161.276 430.053 145.418 439.829 134.613L436.863 131.929ZM421.01 182.508V283H425.01V182.508H421.01ZM423.01 281H381.441V285H423.01V281ZM668.079 276.139L667.086 277.876L667.098 277.882L667.11 277.889L668.079 276.139ZM632.563 240.22L630.8 241.163L630.809 241.181L630.819 241.199L632.563 240.22ZM632.563 127.218L634.32 128.173L634.324 128.167L634.327 128.16L632.563 127.218ZM667.271 91.2988L668.253 93.0412L668.264 93.0353L667.271 91.2988ZM769.378 91.2988L768.344 93.0109L768.363 93.0223L768.382 93.0333L769.378 91.2988ZM803.278 126.41L805.041 125.466V125.466L803.278 126.41ZM815.386 195.019V197.019H817.386V195.019H815.386ZM662.428 195.019V193.019H660.366L660.429 195.081L662.428 195.019ZM679.782 236.992L678.404 238.441L678.422 238.458L678.441 238.475L679.782 236.992ZM756.867 241.835L755.557 240.323L755.544 240.334L755.531 240.346L756.867 241.835ZM775.431 217.62L776.351 215.844L774.506 214.889L773.622 216.768L775.431 217.62ZM809.736 235.377L811.525 236.272L812.406 234.508L810.655 233.601L809.736 235.377ZM793.189 259.189L791.681 257.875L791.668 257.889L791.656 257.903L793.189 259.189ZM765.342 280.175L766.219 281.972L765.342 280.175ZM662.832 163.136L660.852 162.853L660.526 165.136H662.832V163.136ZM773.01 163.136V165.136H775.158L775.005 162.994L773.01 163.136ZM756.867 128.025L755.538 129.52L755.55 129.53L755.561 129.54L756.867 128.025ZM680.59 128.025L681.895 129.54L681.898 129.537L680.59 128.025ZM720.948 286.65C701.049 286.65 683.771 282.54 669.047 274.389L667.11 277.889C682.521 286.42 700.488 290.65 720.948 290.65V286.65ZM669.071 274.403C654.323 265.975 642.742 254.266 634.307 239.241L630.819 241.199C639.604 256.847 651.7 269.084 667.086 277.876L669.071 274.403ZM634.327 239.278C626.164 224.005 622.052 206.311 622.052 186.14H618.052C618.052 206.866 622.281 225.226 630.8 241.163L634.327 239.278ZM622.052 186.14V181.297H618.052V186.14H622.052ZM622.052 181.297C622.052 160.852 626.167 143.166 634.32 128.173L630.806 126.262C622.279 141.942 618.052 160.309 618.052 181.297H622.052ZM634.327 128.16C642.497 112.876 653.801 101.187 668.253 93.0411L666.289 89.5565C651.146 98.092 639.312 110.349 630.8 126.275L634.327 128.16ZM668.264 93.0353C682.99 84.62 699.994 80.3842 719.333 80.3842V76.3842C699.391 76.3842 681.687 80.7581 666.279 89.5623L668.264 93.0353ZM719.333 80.3842C738.126 80.3842 754.439 84.6158 768.344 93.0109L770.411 89.5867C755.796 80.7623 738.746 76.3842 719.333 76.3842V80.3842ZM768.382 93.0333C782.579 101.184 793.617 112.611 801.515 127.355L805.041 125.466C796.797 110.076 785.234 98.0953 770.373 89.5643L768.382 93.0333ZM801.515 127.355C809.406 142.083 813.386 159.371 813.386 179.28H817.386C817.386 158.83 813.294 140.872 805.041 125.466L801.515 127.355ZM813.386 179.28V195.019H817.386V179.28H813.386ZM815.386 193.019H662.428V197.019H815.386V193.019ZM660.429 195.081C660.981 213.01 666.934 227.53 678.404 238.441L681.161 235.543C670.569 225.467 664.952 212.005 664.427 194.958L660.429 195.081ZM678.441 238.475C690.145 249.064 704.629 254.328 721.755 254.328V250.328C705.519 250.328 692.021 245.367 681.124 235.509L678.441 238.475ZM721.755 254.328C737.618 254.328 749.888 250.777 758.202 243.324L755.531 240.346C748.24 246.883 737.102 250.328 721.755 250.328V254.328ZM758.176 243.346C766.447 236.178 772.811 227.886 777.241 218.471L773.622 216.768C769.442 225.65 763.43 233.5 755.557 240.323L758.176 243.346ZM774.512 219.396L808.816 237.154L810.655 233.601L776.351 215.844L774.512 219.396ZM807.947 234.483C804.275 241.827 798.867 249.625 791.681 257.875L794.697 260.502C802.04 252.072 807.663 243.995 811.525 236.272L807.947 234.483ZM791.656 257.903C784.871 265.994 775.827 272.828 764.464 278.378L766.219 281.972C777.995 276.221 787.516 269.065 794.721 260.474L791.656 257.903ZM764.464 278.378C753.255 283.852 738.784 286.65 720.948 286.65V290.65C739.164 290.65 754.29 287.798 766.219 281.972L764.464 278.378ZM662.832 165.136H773.01V161.136H662.832V165.136ZM775.005 162.994C773.898 147.499 768.334 135.26 758.172 126.509L755.561 129.54C764.771 137.471 769.969 148.639 771.015 163.279L775.005 162.994ZM758.195 126.53C748.072 117.531 734.92 113.11 718.93 113.11V117.11C734.15 117.11 746.289 121.299 755.538 129.52L758.195 126.53ZM718.93 113.11C702.938 113.11 689.665 117.532 679.281 126.512L681.898 129.537C691.424 121.298 703.711 117.11 718.93 117.11V113.11ZM679.285 126.509C669.165 135.224 663.059 147.403 660.852 162.853L664.812 163.419C666.91 148.735 672.643 137.507 681.895 129.54L679.285 126.509ZM865.424 283H863.424V285H865.424V283ZM865.424 84.0343V82.0343H863.424V84.0343H865.424ZM906.185 84.0343H908.185V82.0343H906.185V84.0343ZM906.185 107.442H904.185V109.442H906.185V107.442ZM912.643 107.442V109.442H914.013L914.508 108.164L912.643 107.442ZM927.979 89.2809L928.927 91.0419L928.938 91.0356L928.95 91.0292L927.979 89.2809ZM978.426 83.2272H980.426V81.2272H978.426V83.2272ZM978.426 120.76V122.76H980.426V120.76H978.426ZM919.907 132.061L921.197 133.589L921.211 133.578L921.224 133.566L919.907 132.061ZM906.992 283V285H908.992V283H906.992ZM867.424 283V84.0343H863.424V283H867.424ZM865.424 86.0343H906.185V82.0343H865.424V86.0343ZM904.185 84.0343V107.442H908.185V84.0343H904.185ZM906.185 109.442H912.643V105.442H906.185V109.442ZM914.508 108.164C917.587 100.208 922.404 94.5541 928.927 91.0419L927.031 87.52C919.562 91.5413 914.155 97.9945 910.777 106.72L914.508 108.164ZM928.95 91.0292C935.849 87.1964 944.374 85.2272 954.615 85.2272V81.2272C943.87 81.2272 934.637 83.2938 927.007 87.5326L928.95 91.0292ZM954.615 85.2272H978.426V81.2272H954.615V85.2272ZM976.426 83.2272V120.76H980.426V83.2272H976.426ZM978.426 118.76H953.001V122.76H978.426V118.76ZM953.001 118.76C939.154 118.76 927.627 122.648 918.59 130.555L921.224 133.566C929.407 126.406 939.943 122.76 953.001 122.76V118.76ZM918.617 130.532C909.41 138.301 904.992 150.261 904.992 165.961H908.992C908.992 150.99 913.185 140.349 921.197 133.589L918.617 130.532ZM904.992 165.961V283H908.992V165.961H904.992ZM906.992 281H865.424V285H906.992V281ZM1067.5 283L1065.61 283.638L1066.07 285H1067.5V283ZM1000.51 84.0343V82.0343H997.726L998.614 84.6726L1000.51 84.0343ZM1044.5 84.0343L1046.41 83.4349L1045.97 82.0343H1044.5V84.0343ZM1097.37 252.328L1095.46 252.927L1095.9 254.328H1097.37V252.328ZM1103.83 252.328V254.328H1105.29L1105.73 252.927L1103.83 252.328ZM1156.7 84.0343V82.0343H1155.23L1154.79 83.4349L1156.7 84.0343ZM1200.69 84.0343L1202.58 84.6726L1203.47 82.0343H1200.69V84.0343ZM1133.69 283V285H1135.13L1135.59 283.638L1133.69 283ZM1069.4 282.362L1002.41 83.3961L998.614 84.6726L1065.61 283.638L1069.4 282.362ZM1000.51 86.0343H1044.5V82.0343H1000.51V86.0343ZM1042.59 84.6338L1095.46 252.927L1099.28 251.728L1046.41 83.4349L1042.59 84.6338ZM1097.37 254.328H1103.83V250.328H1097.37V254.328ZM1105.73 252.927L1158.6 84.6338L1154.79 83.4349L1101.92 251.728L1105.73 252.927ZM1156.7 86.0343H1200.69V82.0343H1156.7V86.0343ZM1198.79 83.3961L1131.8 282.362L1135.59 283.638L1202.58 84.6726L1198.79 83.3961ZM1133.69 281H1067.5V285H1133.69V281ZM1272.27 276.139L1271.28 277.876L1271.29 277.882L1271.3 277.889L1272.27 276.139ZM1236.75 240.22L1234.99 241.163L1235 241.181L1235.01 241.199L1236.75 240.22ZM1236.75 127.218L1238.51 128.173L1238.51 128.167L1238.52 128.16L1236.75 127.218ZM1271.46 91.2988L1272.44 93.0412L1272.45 93.0353L1271.46 91.2988ZM1373.57 91.2988L1372.53 93.0109L1372.55 93.0223L1372.57 93.0333L1373.57 91.2988ZM1407.47 126.41L1409.23 125.466V125.466L1407.47 126.41ZM1419.58 195.019V197.019H1421.58V195.019H1419.58ZM1266.62 195.019V193.019H1264.56L1264.62 195.081L1266.62 195.019ZM1283.97 236.992L1282.59 238.441L1282.61 238.458L1282.63 238.475L1283.97 236.992ZM1361.06 241.835L1359.75 240.323L1359.73 240.334L1359.72 240.346L1361.06 241.835ZM1379.62 217.62L1380.54 215.844L1378.7 214.889L1377.81 216.768L1379.62 217.62ZM1413.93 235.377L1415.71 236.272L1416.6 234.508L1414.84 233.601L1413.93 235.377ZM1397.38 259.189L1395.87 257.875L1395.86 257.889L1395.85 257.903L1397.38 259.189ZM1369.53 280.175L1370.41 281.972L1369.53 280.175ZM1267.02 163.136L1265.04 162.853L1264.72 165.136H1267.02V163.136ZM1377.2 163.136V165.136H1379.35L1379.19 162.994L1377.2 163.136ZM1361.06 128.025L1359.73 129.52L1359.74 129.53L1359.75 129.54L1361.06 128.025ZM1284.78 128.025L1286.08 129.54L1286.09 129.537L1284.78 128.025ZM1325.14 286.65C1305.24 286.65 1287.96 282.54 1273.24 274.389L1271.3 277.889C1286.71 286.42 1304.68 290.65 1325.14 290.65V286.65ZM1273.26 274.403C1258.51 265.975 1246.93 254.266 1238.5 239.241L1235.01 241.199C1243.79 256.847 1255.89 269.084 1271.28 277.876L1273.26 274.403ZM1238.52 239.278C1230.35 224.005 1226.24 206.311 1226.24 186.14H1222.24C1222.24 206.866 1226.47 225.226 1234.99 241.163L1238.52 239.278ZM1226.24 186.14V181.297H1222.24V186.14H1226.24ZM1226.24 181.297C1226.24 160.852 1230.36 143.166 1238.51 128.173L1235 126.262C1226.47 141.942 1222.24 160.309 1222.24 181.297H1226.24ZM1238.52 128.16C1246.69 112.876 1257.99 101.187 1272.44 93.0411L1270.48 89.5565C1255.34 98.092 1243.5 110.349 1234.99 126.275L1238.52 128.16ZM1272.45 93.0353C1287.18 84.62 1304.18 80.3842 1323.52 80.3842V76.3842C1303.58 76.3842 1285.88 80.7581 1270.47 89.5623L1272.45 93.0353ZM1323.52 80.3842C1342.32 80.3842 1358.63 84.6158 1372.53 93.0109L1374.6 89.5867C1359.99 80.7623 1342.94 76.3842 1323.52 76.3842V80.3842ZM1372.57 93.0333C1386.77 101.184 1397.81 112.611 1405.71 127.355L1409.23 125.466C1400.99 110.076 1389.42 98.0953 1374.56 89.5643L1372.57 93.0333ZM1405.71 127.355C1413.6 142.083 1417.58 159.371 1417.58 179.28H1421.58C1421.58 158.83 1417.48 140.872 1409.23 125.466L1405.71 127.355ZM1417.58 179.28V195.019H1421.58V179.28H1417.58ZM1419.58 193.019H1266.62V197.019H1419.58V193.019ZM1264.62 195.081C1265.17 213.01 1271.12 227.53 1282.59 238.441L1285.35 235.543C1274.76 225.467 1269.14 212.005 1268.62 194.958L1264.62 195.081ZM1282.63 238.475C1294.33 249.064 1308.82 254.328 1325.94 254.328V250.328C1309.71 250.328 1296.21 245.367 1285.31 235.509L1282.63 238.475ZM1325.94 254.328C1341.81 254.328 1354.08 250.777 1362.39 243.324L1359.72 240.346C1352.43 246.883 1341.29 250.328 1325.94 250.328V254.328ZM1362.37 243.346C1370.64 236.178 1377 227.886 1381.43 218.471L1377.81 216.768C1373.63 225.65 1367.62 233.5 1359.75 240.323L1362.37 243.346ZM1378.7 219.396L1413.01 237.154L1414.84 233.601L1380.54 215.844L1378.7 219.396ZM1412.14 234.483C1408.46 241.827 1403.06 249.625 1395.87 257.875L1398.89 260.502C1406.23 252.072 1411.85 243.995 1415.71 236.272L1412.14 234.483ZM1395.85 257.903C1389.06 265.994 1380.02 272.828 1368.65 278.378L1370.41 281.972C1382.18 276.221 1391.71 269.065 1398.91 260.474L1395.85 257.903ZM1368.65 278.378C1357.44 283.852 1342.97 286.65 1325.14 286.65V290.65C1343.35 290.65 1358.48 287.798 1370.41 281.972L1368.65 278.378ZM1267.02 165.136H1377.2V161.136H1267.02V165.136ZM1379.19 162.994C1378.09 147.499 1372.52 135.26 1362.36 126.509L1359.75 129.54C1368.96 137.471 1374.16 148.639 1375.2 163.279L1379.19 162.994ZM1362.39 126.53C1352.26 117.531 1339.11 113.11 1323.12 113.11V117.11C1338.34 117.11 1350.48 121.299 1359.73 129.52L1362.39 126.53ZM1323.12 113.11C1307.13 113.11 1293.85 117.532 1283.47 126.512L1286.09 129.537C1295.61 121.298 1307.9 117.11 1323.12 117.11V113.11ZM1283.47 126.509C1273.35 135.224 1267.25 147.403 1265.04 162.853L1269 163.419C1271.1 148.735 1276.83 137.507 1286.08 129.54L1283.47 126.509Z" fill="url(#paint2_linear_527_64)" fill-opacity="0.5" mask="url(#path-5-outside-1_527_64)"/>
<defs>
<linearGradient id="paint0_linear_527_64" x1="153.787" y1="35.1017" x2="209.987" y2="308.476" gradientUnits="userSpaceOnUse">
<stop offset="0.0350253" stop-color="#FDF0B7"/>
<stop offset="0.521771" stop-color="#FFEA8C"/>
<stop offset="1" stop-color="#FDDE56"/>
</linearGradient>
<linearGradient id="paint1_linear_527_64" x1="329.548" y1="21.9378" x2="356.865" y2="314.228" gradientUnits="userSpaceOnUse">
<stop offset="0.0350253" stop-color="#F5AEDD"/>
<stop offset="0.521771" stop-color="#E493C9"/>
<stop offset="1" stop-color="#C97FB0"/>
</linearGradient>
<linearGradient id="paint2_linear_527_64" x1="720" y1="-44.5" x2="720" y2="384" gradientUnits="userSpaceOnUse">
<stop offset="0.0001" stop-color="white"/>
<stop offset="1" stop-color="#0F0F0F"/>
</linearGradient>
</defs>
</svg>
